<svg width="1280" height="832" viewBox="0 0 1280 832" fill="none" xmlns="http://www.w3.org/2000/svg">
<g clip-path="url(#clip0_28_2)">
<rect width="1280" height="832" fill="#BAB5B5"/>
<path d="M124.962 375.795C124.962 382.533 123.801 388.56 121.48 393.876C119.234 399.117 116.127 403.572 112.159 407.24C108.266 410.909 103.587 413.716 98.1211 415.663C92.7305 417.61 86.9655 418.583 80.8262 418.583C73.9382 418.583 67.724 417.348 62.1836 414.877C56.6432 412.406 51.889 408.326 47.9209 402.636V416H27.0322V368.158H47.9209C47.9209 372.95 48.7445 377.18 50.3916 380.849C52.1136 384.517 54.3597 387.624 57.1299 390.17C59.9001 392.641 63.1195 394.55 66.7881 395.897C70.4567 397.17 74.3499 397.807 78.4678 397.807C85.4307 397.807 91.0459 396.197 95.3135 392.978C99.5811 389.758 101.715 384.63 101.715 377.592C101.715 373.923 101.041 370.779 99.6934 368.158C98.4206 365.538 96.5488 363.217 94.0781 361.195C91.6823 359.099 88.7249 357.302 85.2061 355.805C81.6872 354.232 77.6816 352.585 73.1895 350.863C67.8737 349.066 62.5579 347.045 57.2422 344.799C51.9264 342.553 47.1722 339.783 42.9795 336.488C38.7868 333.194 35.3802 329.151 32.7598 324.359C30.1393 319.493 28.8291 313.391 28.8291 306.054C28.8291 299.615 29.9896 294 32.3105 289.208C34.7064 284.341 37.8509 280.261 41.7441 276.967C45.7122 273.673 50.2793 271.202 55.4453 269.555C60.6862 267.833 66.2266 266.972 72.0664 266.972C78.8047 266.972 84.5697 268.394 89.3613 271.239C94.2279 274.084 97.9714 277.865 100.592 282.582V269.442H121.48V315.038H100.592C100.592 306.428 98.3083 299.727 93.7412 294.936C89.249 290.069 83.1846 287.636 75.5479 287.636C68.8096 287.636 63.1943 289.208 58.7021 292.353C54.2848 295.497 52.0762 299.914 52.0762 305.604C52.0762 308.524 52.6377 311.033 53.7607 313.129C54.9587 315.15 56.6432 317.022 58.8145 318.744C61.0605 320.391 63.8682 321.964 67.2373 323.461C70.6064 324.883 74.4997 326.456 78.917 328.178C84.4574 330.124 89.9603 332.333 95.4258 334.804C100.891 337.274 105.795 340.307 110.138 343.9C114.48 347.494 118.036 351.874 120.807 357.04C123.577 362.131 124.962 368.383 124.962 375.795ZM170.895 372.538C172.018 379.726 175.424 385.715 181.114 390.507C186.879 395.224 194.591 397.582 204.249 397.582C211.811 397.582 218.362 396.422 223.902 394.101C229.518 391.705 234.347 388.56 238.39 384.667L250.294 401.063C243.556 407.802 236.406 412.406 228.844 414.877C221.357 417.348 213.159 418.583 204.249 418.583C196.163 418.583 188.639 417.235 181.676 414.54C174.713 411.845 168.686 408.101 163.595 403.31C158.504 398.443 154.498 392.678 151.578 386.015C148.733 379.351 147.311 371.939 147.311 363.778C147.311 355.842 148.621 348.542 151.241 341.879C153.937 335.141 157.68 329.338 162.472 324.472C167.338 319.53 173.141 315.712 179.879 313.017C186.617 310.246 194.067 308.861 202.228 308.861C210.688 308.861 218.362 310.321 225.25 313.241C232.138 316.086 238.015 320.242 242.882 325.707C247.823 331.173 251.679 337.873 254.449 345.81C257.219 353.671 258.604 362.58 258.604 372.538H170.895ZM232.325 352.099C231.127 345.36 227.646 339.97 221.881 335.927C216.116 331.809 209.565 329.75 202.228 329.75C194.89 329.75 188.302 331.809 182.462 335.927C176.622 339.97 173.103 345.36 171.905 352.099H232.325ZM379.781 416H356.534V344.237C356.534 339.296 356.01 335.665 354.962 333.344C353.989 330.948 352.229 329.75 349.684 329.75C345.042 329.75 342.084 332.37 340.812 337.611C339.614 342.777 339.015 350.339 339.015 360.297V416H315.768V344.237C315.768 339.296 315.243 335.665 314.195 333.344C313.147 330.948 311.313 329.75 308.692 329.75C304.125 329.75 301.243 332.37 300.045 337.611C298.922 342.777 298.36 350.339 298.36 360.297V416H275.113V311.332H298.585V326.493C300.232 320.728 302.665 316.348 305.885 313.354C309.104 310.359 313.409 308.861 318.8 308.861C323.292 308.861 327.035 310.246 330.03 313.017C333.1 315.712 335.196 319.455 336.319 324.247C338.94 319.006 341.635 315.15 344.405 312.68C347.25 310.134 351.593 308.861 357.433 308.861C364.62 308.861 370.123 311.519 373.941 316.835C377.835 322.076 379.781 330.049 379.781 340.756V416ZM422.008 372.538C423.131 379.726 426.537 385.715 432.228 390.507C437.993 395.224 445.704 397.582 455.362 397.582C462.924 397.582 469.475 396.422 475.016 394.101C480.631 391.705 485.46 388.56 489.503 384.667L501.407 401.063C494.669 407.802 487.519 412.406 479.957 414.877C472.47 417.348 464.272 418.583 455.362 418.583C447.276 418.583 439.752 417.235 432.789 414.54C425.826 411.845 419.799 408.101 414.708 403.31C409.617 398.443 405.611 392.678 402.691 386.015C399.846 379.351 398.424 371.939 398.424 363.778C398.424 355.842 399.734 348.542 402.354 341.879C405.05 335.141 408.793 329.338 413.585 324.472C418.451 319.53 424.254 315.712 430.992 313.017C437.73 310.246 445.18 308.861 453.341 308.861C461.801 308.861 469.475 310.321 476.363 313.241C483.251 316.086 489.129 320.242 493.995 325.707C498.937 331.173 502.792 337.873 505.562 345.81C508.333 353.671 509.718 362.58 509.718 372.538H422.008ZM483.438 352.099C482.241 345.36 478.759 339.97 472.994 335.927C467.229 331.809 460.678 329.75 453.341 329.75C446.004 329.75 439.415 331.809 433.575 335.927C427.735 339.97 424.216 345.36 423.019 352.099H483.438ZM628.087 384.667C628.087 391.48 626.552 397.021 623.482 401.288C620.413 405.556 616.445 409 611.578 411.62C606.786 414.241 601.396 416.037 595.406 417.011C589.492 418.059 583.689 418.583 577.999 418.583C568.491 418.583 559.02 417.198 549.586 414.428C540.152 411.658 531.992 408.026 525.104 403.534L534.762 384.442C542.997 389.234 550.522 392.641 557.335 394.662C564.223 396.609 571.111 397.582 577.999 397.582C587.358 397.582 594.171 396.609 598.438 394.662C602.706 392.641 604.84 389.87 604.84 386.352C604.84 384.63 604.241 383.207 603.043 382.084C601.845 380.961 599.861 379.95 597.091 379.052C594.321 378.078 590.652 377.143 586.085 376.244C581.593 375.271 575.978 374.26 569.239 373.212C563.849 372.313 558.72 371.228 553.854 369.955C549.062 368.607 544.832 366.736 541.163 364.34C537.494 361.944 534.537 358.912 532.291 355.243C530.12 351.575 529.034 346.97 529.034 341.43C529.034 335.814 530.457 330.948 533.302 326.83C536.222 322.637 540.003 319.193 544.645 316.498C549.361 313.803 554.64 311.856 560.479 310.658C566.319 309.46 572.159 308.861 577.999 308.861C586.235 308.861 594.208 309.947 601.92 312.118C609.706 314.215 616.52 317.247 622.359 321.215L613.15 339.184C607.311 335.515 601.62 333.044 596.08 331.771C590.615 330.424 584.588 329.75 577.999 329.75C575.229 329.75 572.346 329.9 569.352 330.199C566.357 330.499 563.587 331.098 561.041 331.996C558.495 332.82 556.362 333.98 554.64 335.478C552.993 336.9 552.169 338.66 552.169 340.756C552.169 343.526 554.602 345.81 559.469 347.606C564.41 349.328 572.796 351.05 584.625 352.772C591.064 353.671 596.941 354.831 602.257 356.254C607.573 357.602 612.14 359.473 615.958 361.869C619.776 364.19 622.734 367.222 624.83 370.966C627.001 374.634 628.087 379.201 628.087 384.667ZM757.574 382.646C756.376 393.651 752.034 402.411 744.547 408.925C737.135 415.364 727.851 418.583 716.695 418.583C710.556 418.583 704.941 417.572 699.85 415.551C694.758 413.529 690.416 410.722 686.822 407.128C683.229 403.534 680.421 399.229 678.399 394.213C676.453 389.122 675.479 383.581 675.479 377.592V332.333H651.783V311.332H675.479V269.442H698.727V311.332H742.638V332.333H698.727V377.592C698.727 384.33 700.374 389.346 703.668 392.641C706.962 395.935 711.305 397.582 716.695 397.582C723.284 397.582 728.188 395.673 731.407 391.854C734.627 388.036 736.536 383.432 737.135 378.041L757.574 382.646ZM798.678 372.538C799.801 379.726 803.207 385.715 808.897 390.507C814.662 395.224 822.374 397.582 832.032 397.582C839.594 397.582 846.145 396.422 851.686 394.101C857.301 391.705 862.13 388.56 866.173 384.667L878.077 401.063C871.339 407.802 864.189 412.406 856.627 414.877C849.14 417.348 840.942 418.583 832.032 418.583C823.946 418.583 816.422 417.235 809.459 414.54C802.496 411.845 796.469 408.101 791.378 403.31C786.287 398.443 782.281 392.678 779.361 386.015C776.516 379.351 775.094 371.939 775.094 363.778C775.094 355.842 776.404 348.542 779.024 341.879C781.72 335.141 785.463 329.338 790.255 324.472C795.121 319.53 800.924 315.712 807.662 313.017C814.4 310.246 821.85 308.861 830.011 308.861C838.471 308.861 846.145 310.321 853.033 313.241C859.921 316.086 865.799 320.242 870.665 325.707C875.606 331.173 879.462 337.873 882.232 345.81C885.003 353.671 886.388 362.58 886.388 372.538H798.678ZM860.108 352.099C858.91 345.36 855.429 339.97 849.664 335.927C843.899 331.809 837.348 329.75 830.011 329.75C822.674 329.75 816.085 331.809 810.245 335.927C804.405 339.97 800.886 345.36 799.688 352.099H860.108ZM1004.98 336.151C1002.21 334.804 999.366 333.793 996.446 333.119C993.601 332.37 990.307 331.996 986.563 331.996C981.397 331.996 976.531 332.782 971.964 334.354C967.472 335.852 963.578 338.135 960.284 341.205C956.99 344.275 954.407 348.131 952.535 352.772C950.738 357.34 949.84 362.768 949.84 369.057V395.111H973.312V416H902.896V395.111H926.593V332.333H902.896V311.332H949.84V337.611C953.658 327.13 959.273 319.717 966.686 315.375C974.173 311.033 983.045 308.861 993.302 308.861C996.521 308.861 999.89 309.198 1003.41 309.872C1006.93 310.546 1010.37 311.744 1013.74 313.466L1004.98 336.151ZM1241.38 416H1171.08V395.111H1194.66V311.781C1193.62 315.45 1191.78 318.707 1189.16 321.552C1186.62 324.397 1183.51 326.793 1179.84 328.739C1176.25 330.611 1172.2 332.071 1167.71 333.119C1163.29 334.092 1158.73 334.579 1154.01 334.579V311.332C1159.1 311.332 1164.04 310.508 1168.83 308.861C1173.7 307.139 1178.04 304.556 1181.86 301.112C1185.68 297.668 1188.75 293.363 1191.07 288.197C1193.47 282.956 1194.66 276.705 1194.66 269.442H1217.91V395.111H1241.38V416Z" fill="#FFF2F2"/>
<path d="M121.48 393.876L103.151 385.873L103.124 385.935L103.098 385.998L121.48 393.876ZM112.159 407.24L98.5821 392.555L98.5123 392.619L98.4432 392.684L112.159 407.24ZM98.1211 415.663L91.4107 396.822L91.3694 396.837L91.3282 396.852L98.1211 415.663ZM47.9209 402.636L64.3258 391.195L27.9209 338.992V402.636H47.9209ZM47.9209 416V436H67.9209V416H47.9209ZM27.0322 416H7.03223V436H27.0322V416ZM27.0322 368.158V348.158H7.03223V368.158H27.0322ZM47.9209 368.158H67.9209V348.158H47.9209V368.158ZM50.3916 380.849L32.1462 389.04L32.2152 389.194L32.2869 389.347L50.3916 380.849ZM57.1299 390.17L43.5974 404.896L43.7067 404.997L43.8176 405.096L57.1299 390.17ZM66.7881 395.897L59.8917 414.671L60.0616 414.733L60.2326 414.793L66.7881 395.897ZM99.6934 368.158L81.7032 376.896L81.8031 377.102L81.9076 377.305L99.6934 368.158ZM94.0781 361.195L80.908 376.247L81.1572 376.465L81.4134 376.674L94.0781 361.195ZM85.2061 355.805L77.0473 374.065L77.2105 374.138L77.375 374.208L85.2061 355.805ZM73.1895 350.863L80.3482 332.188L79.9738 332.045L79.594 331.916L73.1895 350.863ZM32.7598 324.359L15.1503 333.841L15.1812 333.899L15.2123 333.956L32.7598 324.359ZM32.3105 289.208L14.3671 280.374L14.3388 280.432L14.3109 280.489L32.3105 289.208ZM41.7441 276.967L28.969 261.579L28.8969 261.638L28.8253 261.699L41.7441 276.967ZM55.4453 269.555L61.5208 288.61L61.6047 288.583L61.6884 288.555L55.4453 269.555ZM89.3613 271.239L79.1506 288.436L79.2089 288.471L79.2674 288.505L89.3613 271.239ZM100.592 282.582L83.1087 292.295L120.592 359.765V282.582H100.592ZM100.592 269.442V249.442H80.5918V269.442H100.592ZM121.48 269.442H141.48V249.442H121.48V269.442ZM121.48 315.038V335.038H141.48V315.038H121.48ZM100.592 315.038H80.5918V335.038H100.592V315.038ZM93.7412 294.936L79.0451 308.501L79.1536 308.619L79.2638 308.734L93.7412 294.936ZM58.7021 292.353L47.2329 275.968L47.168 276.013L47.1035 276.059L58.7021 292.353ZM53.7607 313.129L36.1311 322.573L36.3349 322.954L36.5549 323.325L53.7607 313.129ZM58.8145 318.744L46.3866 334.414L46.6825 334.649L46.9872 334.872L58.8145 318.744ZM67.2373 323.461L59.1145 341.737L59.2855 341.813L59.4579 341.886L67.2373 323.461ZM78.917 328.178L71.6528 346.812L71.9681 346.935L72.2873 347.047L78.917 328.178ZM120.807 357.04L103.181 366.492L103.21 366.545L103.239 366.599L120.807 357.04ZM104.962 375.795C104.962 380.22 104.206 383.457 103.151 385.873L139.81 401.879C143.396 393.664 144.962 384.846 144.962 375.795H104.962ZM103.098 385.998C101.896 388.802 100.375 390.897 98.5821 392.555L125.736 421.926C131.879 416.246 136.573 409.431 139.863 401.754L103.098 385.998ZM98.4432 392.684C96.7289 394.3 94.4926 395.725 91.4107 396.822L104.831 434.504C112.681 431.708 119.803 427.518 125.875 421.796L98.4432 392.684ZM91.3282 396.852C88.2665 397.958 84.8151 398.583 80.8262 398.583V438.583C89.1159 438.583 97.1944 437.262 104.914 434.474L91.3282 396.852ZM80.8262 398.583C76.3652 398.583 72.9806 397.793 70.3293 396.611L54.0379 433.143C62.4673 436.902 71.5111 438.583 80.8262 438.583V398.583ZM70.3293 396.611C68.5664 395.825 66.5175 394.338 64.3258 391.195L31.516 414.076C37.2605 422.313 44.7201 428.988 54.0379 433.143L70.3293 396.611ZM27.9209 402.636V416H67.9209V402.636H27.9209ZM47.9209 396H27.0322V436H47.9209V396ZM47.0322 416V368.158H7.03223V416H47.0322ZM27.0322 388.158H47.9209V348.158H27.0322V388.158ZM27.9209 368.158C27.9209 375.241 29.1425 382.35 32.1462 389.04L68.637 372.657C68.3464 372.01 67.9209 370.659 67.9209 368.158H27.9209ZM32.2869 389.347C35.0275 395.186 38.769 400.46 43.5974 404.896L70.6624 375.443C69.9504 374.789 69.1997 373.849 68.4963 372.35L32.2869 389.347ZM43.8176 405.096C48.5635 409.329 53.9882 412.502 59.8917 414.671L73.6844 377.124C72.2508 376.597 71.2366 375.953 70.4422 375.244L43.8176 405.096ZM60.2326 414.793C66.1339 416.84 72.2541 417.807 78.4678 417.807V377.807C76.4458 377.807 74.7795 377.501 73.3435 377.002L60.2326 414.793ZM78.4678 417.807C88.4599 417.807 98.6987 415.477 107.358 408.944L83.2687 377.011C83.2684 377.011 83.0575 377.182 82.39 377.374C81.679 377.578 80.4309 377.807 78.4678 377.807V417.807ZM107.358 408.944C118.141 400.81 121.715 388.743 121.715 377.592H81.7148C81.7148 379.151 81.4717 379.46 81.649 379.034C81.7447 378.804 81.9299 378.443 82.2431 378.035C82.5591 377.623 82.9185 377.275 83.2687 377.011L107.358 408.944ZM121.715 377.592C121.715 371.506 120.595 365.07 117.479 359.011L81.9076 377.305C81.7058 376.913 81.6523 376.667 81.6534 376.673C81.6573 376.691 81.7148 376.973 81.7148 377.592H121.715ZM117.684 359.42C115.028 353.952 111.239 349.395 106.743 345.716L81.4134 376.674C81.6574 376.874 81.7539 376.991 81.7667 377.007C81.776 377.019 81.7427 376.978 81.7032 376.896L117.684 359.42ZM107.248 346.144C102.978 342.407 98.1226 339.566 93.0372 337.402L77.375 374.208C79.3273 375.039 80.3865 375.79 80.908 376.247L107.248 346.144ZM93.3649 337.545C89.4476 335.794 85.0988 334.009 80.3482 332.188L66.0307 369.538C70.2645 371.161 73.9267 372.671 77.0473 374.065L93.3649 337.545ZM79.594 331.916C74.7575 330.282 69.9018 328.436 65.0265 326.376L49.4579 363.222C55.2141 365.654 60.9899 367.851 66.7849 369.81L79.594 331.916ZM65.0265 326.376C61.2141 324.765 58.0215 322.872 55.3359 320.762L30.6231 352.215C36.3229 356.693 42.6387 360.34 49.4579 363.222L65.0265 326.376ZM55.3359 320.762C53.3226 319.18 51.6619 317.24 50.3072 314.763L15.2123 333.956C19.0985 341.062 24.251 347.208 30.6231 352.215L55.3359 320.762ZM50.3692 314.877C49.7476 313.723 48.8291 311.125 48.8291 306.054H8.8291C8.8291 315.657 10.531 325.263 15.1503 333.841L50.3692 314.877ZM48.8291 306.054C48.8291 302.012 49.5526 299.491 50.3102 297.927L14.3109 280.489C10.4265 288.509 8.8291 297.218 8.8291 306.054H48.8291ZM50.254 298.042C51.5136 295.483 53.0007 293.641 54.663 292.235L28.8253 261.699C22.7011 266.881 17.8992 273.2 14.3671 280.374L50.254 298.042ZM54.5192 292.355C56.4099 290.785 58.6751 289.517 61.5208 288.61L49.3698 250.5C41.8835 252.887 35.0146 256.56 28.969 261.579L54.5192 292.355ZM61.6884 288.555C64.7991 287.533 68.2226 286.972 72.0664 286.972V246.972C64.2305 246.972 56.5733 248.132 49.2022 250.554L61.6884 288.555ZM72.0664 286.972C75.9636 286.972 78.0374 287.775 79.1506 288.436L99.5721 254.042C91.1019 249.013 81.6458 246.972 72.0664 246.972V286.972ZM79.2674 288.505C81.1829 289.625 82.3092 290.856 83.1087 292.295L118.075 272.869C113.634 264.875 107.273 258.544 99.4553 253.973L79.2674 288.505ZM120.592 282.582V269.442H80.5918V282.582H120.592ZM100.592 289.442H121.48V249.442H100.592V289.442ZM101.48 269.442V315.038H141.48V269.442H101.48ZM121.48 295.038H100.592V335.038H121.48V295.038ZM120.592 315.038C120.592 302.888 117.298 290.663 108.219 281.137L79.2638 308.734C79.3182 308.791 80.5918 309.968 80.5918 315.038H120.592ZM108.437 281.37C99.5665 271.76 87.8286 267.636 75.5479 267.636V307.636C77.2385 307.636 78.0759 307.902 78.3762 308.022C78.6128 308.117 78.7859 308.22 79.0451 308.501L108.437 281.37ZM75.5479 267.636C65.657 267.636 55.7897 269.978 47.2329 275.968L70.1714 308.737C70.599 308.438 71.9621 307.636 75.5479 307.636V267.636ZM47.1035 276.059C37.1149 283.17 32.0762 293.821 32.0762 305.604H72.0762C72.0762 305.391 72.1027 306.005 71.6212 306.968C71.1222 307.966 70.492 308.51 70.3008 308.646L47.1035 276.059ZM32.0762 305.604C32.0762 311.078 33.1359 316.982 36.1311 322.573L71.3903 303.684C72.1395 305.083 72.0762 305.97 72.0762 305.604H32.0762ZM36.5549 323.325C39.1994 327.787 42.6381 331.441 46.3866 334.414L71.2423 303.074C70.9458 302.839 70.8134 302.697 70.7885 302.67C70.7667 302.645 70.8464 302.73 70.9666 302.933L36.5549 323.325ZM46.9872 334.872C50.6895 337.587 54.8304 339.833 59.1145 341.737L75.3601 305.185C72.9059 304.094 71.4316 303.195 70.6417 302.616L46.9872 334.872ZM59.4579 341.886C63.039 343.398 67.1103 345.041 71.6528 346.812L86.1812 309.544C81.8891 307.87 78.1739 306.369 75.0167 305.036L59.4579 341.886ZM72.2873 347.047C77.2708 348.798 82.2373 350.79 87.1874 353.028L103.664 316.579C97.6833 313.876 91.6439 311.451 85.5467 309.309L72.2873 347.047ZM87.1874 353.028C91.1336 354.812 94.5011 356.921 97.3863 359.308L122.889 328.493C117.089 323.693 110.649 319.737 103.664 316.579L87.1874 353.028ZM97.3863 359.308C99.654 361.185 101.585 363.515 103.181 366.492L138.432 347.589C134.488 340.233 129.306 333.803 122.889 328.493L97.3863 359.308ZM103.239 366.599C104.029 368.051 104.962 370.814 104.962 375.795H144.962C144.962 365.952 143.125 356.212 138.374 347.481L103.239 366.599ZM170.895 372.538V352.538H147.527L151.134 375.626L170.895 372.538ZM181.114 390.507L168.232 405.805L168.34 405.896L168.45 405.986L181.114 390.507ZM223.902 394.101L231.63 412.547L231.691 412.522L231.751 412.496L223.902 394.101ZM238.39 384.667L254.574 372.917L241.072 354.319L224.517 370.261L238.39 384.667ZM250.294 401.063L264.436 415.206L276.51 403.131L266.478 389.313L250.294 401.063ZM228.844 414.877L222.632 395.866L222.604 395.875L222.576 395.884L228.844 414.877ZM163.595 403.31L149.775 417.767L149.831 417.821L149.887 417.874L163.595 403.31ZM151.578 386.015L133.185 393.868L133.222 393.955L133.26 394.042L151.578 386.015ZM151.241 341.879L132.672 334.451L132.65 334.505L132.629 334.559L151.241 341.879ZM162.472 324.472L148.222 310.438L148.22 310.44L162.472 324.472ZM179.879 313.017L187.307 331.586L187.395 331.551L187.484 331.514L179.879 313.017ZM225.25 313.241L217.444 331.655L217.529 331.691L217.615 331.726L225.25 313.241ZM242.882 325.707L227.945 339.007L227.995 339.064L228.046 339.12L242.882 325.707ZM254.449 345.81L235.567 352.401L235.576 352.429L235.586 352.457L254.449 345.81ZM258.604 372.538V392.538H278.604V372.538H258.604ZM232.325 352.099V372.099H256.194L252.016 348.598L232.325 352.099ZM221.881 335.927L210.256 352.201L210.327 352.252L210.397 352.301L221.881 335.927ZM182.462 335.927L193.846 352.371L193.917 352.322L193.987 352.272L182.462 335.927ZM171.905 352.099L152.214 348.598L148.036 372.099H171.905V352.099ZM151.134 375.626C153.02 387.696 158.943 397.983 168.232 405.805L193.997 375.209C191.906 373.447 191.015 371.755 190.655 369.451L151.134 375.626ZM168.45 405.986C178.732 414.399 191.362 417.582 204.249 417.582V377.582C197.819 377.582 195.027 376.048 193.779 375.028L168.45 405.986ZM204.249 417.582C213.802 417.582 223.098 416.122 231.63 412.547L216.175 375.654C213.626 376.721 209.82 377.582 204.249 377.582V417.582ZM231.751 412.496C239.403 409.231 246.323 404.793 252.262 399.073L224.517 370.261C222.371 372.327 219.632 374.178 216.054 375.705L231.751 412.496ZM222.205 396.417L234.11 412.814L266.478 389.313L254.574 372.917L222.205 396.417ZM236.152 386.921C231.201 391.872 226.669 394.547 222.632 395.866L235.055 433.888C246.143 430.265 255.91 423.732 264.436 415.206L236.152 386.921ZM222.576 395.884C217.355 397.607 211.302 398.583 204.249 398.583V438.583C215.015 438.583 225.358 437.088 235.111 433.87L222.576 395.884ZM204.249 398.583C198.426 398.583 193.371 397.621 188.896 395.889L174.456 433.191C183.906 436.85 193.9 438.583 204.249 438.583V398.583ZM188.896 395.889C184.173 394.061 180.39 391.652 177.302 388.746L149.887 417.874C156.982 424.551 165.252 429.629 174.456 433.191L188.896 395.889ZM177.414 388.852C174.296 385.871 171.792 382.313 169.897 377.987L133.26 394.042C137.204 403.043 142.711 411.015 149.775 417.767L177.414 388.852ZM169.972 378.161C168.313 374.276 167.311 369.58 167.311 363.778H127.311C127.311 374.298 129.153 384.427 133.185 393.868L169.972 378.161ZM167.311 363.778C167.311 358.076 168.244 353.291 169.854 349.198L132.629 334.559C128.997 343.794 127.311 353.608 127.311 363.778H167.311ZM169.811 349.307C171.582 344.878 173.91 341.361 176.723 338.504L148.22 310.44C141.45 317.316 136.291 325.403 132.672 334.451L169.811 349.307ZM176.721 338.505C179.562 335.622 183.01 333.305 187.307 331.586L172.451 294.447C163.272 298.119 155.115 303.439 148.222 310.438L176.721 338.505ZM187.484 331.514C191.536 329.849 196.362 328.861 202.228 328.861V288.861C191.771 288.861 181.699 290.644 172.274 294.519L187.484 331.514ZM202.228 328.861C208.356 328.861 213.328 329.91 217.444 331.655L233.056 294.827C223.396 290.732 213.02 288.861 202.228 288.861V328.861ZM217.615 331.726C221.761 333.439 225.127 335.842 227.945 339.007L257.819 312.407C250.904 304.641 242.515 298.733 232.885 294.756L217.615 331.726ZM228.046 339.12C230.962 342.345 233.553 346.633 235.567 352.401L273.332 339.218C269.805 329.114 264.685 320 257.717 312.294L228.046 339.12ZM235.586 352.457C237.473 357.813 238.604 364.416 238.604 372.538H278.604C278.604 360.745 276.965 349.529 273.312 339.163L235.586 352.457ZM258.604 352.538H170.895V392.538H258.604V352.538ZM252.016 348.598C249.863 336.486 243.32 326.534 233.364 319.552L210.397 352.301C211.971 353.405 212.391 354.234 212.634 355.599L252.016 348.598ZM233.506 319.652C224.222 313.021 213.575 309.75 202.228 309.75V349.75C205.555 349.75 208.01 350.597 210.256 352.201L233.506 319.652ZM202.228 309.75C190.882 309.75 180.244 313.018 170.936 319.582L193.987 352.272C196.359 350.599 198.899 349.75 202.228 349.75V309.75ZM171.078 319.483C161.04 326.432 154.384 336.393 152.214 348.598L191.597 355.599C191.823 354.328 192.204 353.507 193.846 352.371L171.078 319.483ZM171.905 372.099H232.325V332.099H171.905V372.099ZM379.781 416V436H399.781V416H379.781ZM356.534 416H336.534V436H356.534V416ZM354.962 333.344L336.433 340.871L336.577 341.226L336.735 341.575L354.962 333.344ZM340.812 337.611L321.376 332.891L321.352 332.992L321.328 333.094L340.812 337.611ZM339.015 416V436H359.015V416H339.015ZM315.768 416H295.768V436H315.768V416ZM314.195 333.344L295.872 341.36L295.919 341.468L295.968 341.575L314.195 333.344ZM300.045 337.611L280.548 333.155L280.524 333.259L280.501 333.363L300.045 337.611ZM298.36 416V436H318.36V416H298.36ZM275.113 416H255.113V436H275.113V416ZM275.113 311.332V291.332H255.113V311.332H275.113ZM298.585 311.332H318.585V291.332H298.585V311.332ZM298.585 326.493H278.585L317.815 331.988L298.585 326.493ZM305.885 313.354L292.263 298.71L305.885 313.354ZM330.03 313.017L316.449 327.699L316.64 327.874L316.834 328.045L330.03 313.017ZM336.319 324.247L316.847 328.811L329.47 382.668L354.208 333.191L336.319 324.247ZM344.405 312.68L357.718 327.606L357.729 327.595L357.741 327.585L344.405 312.68ZM373.941 316.835L357.698 328.503L357.791 328.633L357.887 328.761L373.941 316.835ZM379.781 396H356.534V436H379.781V396ZM376.534 416V344.237H336.534V416H376.534ZM376.534 344.237C376.534 338.631 376.054 331.455 373.189 325.112L336.735 341.575C336.459 340.964 336.343 340.551 336.313 340.438C336.281 340.317 336.305 340.377 336.346 340.665C336.434 341.274 336.534 342.418 336.534 344.237H376.534ZM373.491 325.816C371.843 321.759 368.949 317.372 364.168 314.116C359.364 310.846 354.17 309.75 349.684 309.75V349.75C347.742 349.75 344.701 349.253 341.657 347.18C338.635 345.123 337.108 342.533 336.433 340.871L373.491 325.816ZM349.684 309.75C343.379 309.75 336.481 311.642 330.72 316.746C325.254 321.589 322.633 327.718 321.376 332.891L360.247 342.331C360.243 342.347 360.12 342.857 359.694 343.649C359.251 344.472 358.483 345.59 357.248 346.684C354.444 349.169 351.346 349.75 349.684 349.75V309.75ZM321.328 333.094C319.608 340.514 319.015 349.897 319.015 360.297H359.015C359.015 350.781 359.619 345.041 360.295 342.129L321.328 333.094ZM319.015 360.297V416H359.015V360.297H319.015ZM339.015 396H315.768V436H339.015V396ZM335.768 416V344.237H295.768V416H335.768ZM335.768 344.237C335.768 338.631 335.287 331.455 332.423 325.112L295.968 341.575C295.692 340.964 295.576 340.551 295.546 340.438C295.514 340.317 295.538 340.377 295.58 340.665C295.668 341.274 295.768 342.418 295.768 344.237H335.768ZM332.518 325.327C330.741 321.264 327.732 317.014 322.969 313.903C318.209 310.794 313.114 309.75 308.692 309.75V349.75C306.891 349.75 304.024 349.305 301.098 347.394C298.169 345.481 296.602 343.028 295.872 341.36L332.518 325.327ZM308.692 309.75C302.345 309.75 295.397 311.693 289.652 316.917C284.234 321.842 281.721 328.023 280.548 333.155L319.542 342.068C319.541 342.072 319.427 342.583 319.01 343.386C318.577 344.22 317.812 345.374 316.559 346.514C313.696 349.117 310.473 349.75 308.692 349.75V309.75ZM280.501 333.363C278.916 340.655 278.36 349.928 278.36 360.297H318.36C318.36 350.75 318.928 344.9 319.588 341.86L280.501 333.363ZM278.36 360.297V416H318.36V360.297H278.36ZM298.36 396H275.113V436H298.36V396ZM295.113 416V311.332H255.113V416H295.113ZM275.113 331.332H298.585V291.332H275.113V331.332ZM278.585 311.332V326.493H318.585V311.332H278.585ZM317.815 331.988C318.812 328.5 319.756 327.765 319.507 327.997L292.263 298.71C285.574 304.931 281.652 312.957 279.354 320.999L317.815 331.988ZM319.507 327.997C319.284 328.204 319.028 328.398 318.755 328.561C318.484 328.722 318.253 328.821 318.098 328.874C317.792 328.981 317.943 328.861 318.8 328.861V288.861C309.556 288.861 299.977 291.533 292.263 298.71L319.507 327.997ZM318.8 328.861C318.972 328.861 318.647 328.883 318.036 328.657C317.394 328.42 316.834 328.054 316.449 327.699L343.611 298.335C336.533 291.788 327.774 288.861 318.8 288.861V328.861ZM316.834 328.045C316.72 327.945 316.624 327.842 316.55 327.751C316.478 327.66 316.449 327.608 316.455 327.618C316.466 327.637 316.651 327.975 316.847 328.811L355.792 319.683C353.917 311.683 350.024 303.956 343.226 297.988L316.834 328.045ZM354.208 333.191C355.182 331.242 356.026 329.844 356.698 328.883C357.381 327.906 357.75 327.577 357.718 327.606L331.093 297.754C325.659 302.6 321.604 308.957 318.431 315.303L354.208 333.191ZM357.741 327.585C356.571 328.632 355.583 328.961 355.421 329.008C355.352 329.029 355.467 328.989 355.814 328.946C356.161 328.902 356.691 328.861 357.433 328.861V288.861C349.187 288.861 339.101 290.589 331.069 297.775L357.741 327.585ZM357.433 328.861C357.999 328.861 358.306 328.914 358.408 328.935C358.499 328.954 358.426 328.948 358.252 328.864C358.17 328.824 358.081 328.775 357.991 328.716C357.901 328.657 357.824 328.598 357.761 328.545C357.629 328.431 357.616 328.39 357.698 328.503L390.185 305.167C382.2 294.05 370.325 288.861 357.433 288.861V328.861ZM357.887 328.761C358.041 328.97 359.781 331.829 359.781 340.756H399.781C399.781 328.27 397.628 315.182 389.996 304.908L357.887 328.761ZM359.781 340.756V416H399.781V340.756H359.781ZM422.008 372.538V352.538H398.64L402.248 375.626L422.008 372.538ZM432.228 390.507L419.345 405.805L419.453 405.896L419.563 405.986L432.228 390.507ZM475.016 394.101L482.743 412.547L482.804 412.522L482.864 412.496L475.016 394.101ZM489.503 384.667L505.687 372.917L492.185 354.319L475.63 370.261L489.503 384.667ZM501.407 401.063L515.549 415.206L527.624 403.131L517.592 389.313L501.407 401.063ZM479.957 414.877L473.746 395.866L473.717 395.875L473.689 395.884L479.957 414.877ZM414.708 403.31L400.888 417.767L400.944 417.821L401.001 417.874L414.708 403.31ZM402.691 386.015L384.298 393.868L384.335 393.955L384.373 394.042L402.691 386.015ZM402.354 341.879L383.785 334.451L383.763 334.505L383.742 334.559L402.354 341.879ZM413.585 324.472L399.335 310.438L399.334 310.44L413.585 324.472ZM430.992 313.017L438.42 331.586L438.509 331.551L438.597 331.514L430.992 313.017ZM476.363 313.241L468.557 331.655L468.643 331.691L468.728 331.726L476.363 313.241ZM493.995 325.707L479.058 339.007L479.109 339.064L479.16 339.12L493.995 325.707ZM505.562 345.81L486.68 352.401L486.69 352.429L486.699 352.457L505.562 345.81ZM509.718 372.538V392.538H529.718V372.538H509.718ZM483.438 352.099V372.099H507.308L503.13 348.598L483.438 352.099ZM472.994 335.927L461.369 352.201L461.44 352.252L461.511 352.301L472.994 335.927ZM433.575 335.927L444.959 352.371L445.03 352.322L445.101 352.272L433.575 335.927ZM423.019 352.099L403.327 348.598L399.149 372.099H423.019V352.099ZM402.248 375.626C404.134 387.696 410.056 397.983 419.345 405.805L445.11 375.209C443.019 373.447 442.128 371.755 441.768 369.451L402.248 375.626ZM419.563 405.986C429.845 414.399 442.475 417.582 455.362 417.582V377.582C448.933 377.582 446.14 376.048 444.892 375.028L419.563 405.986ZM455.362 417.582C464.915 417.582 474.211 416.122 482.743 412.547L467.288 375.654C464.74 376.721 460.933 377.582 455.362 377.582V417.582ZM482.864 412.496C490.517 409.231 497.436 404.793 503.376 399.073L475.63 370.261C473.484 372.327 470.745 374.178 467.167 375.705L482.864 412.496ZM473.319 396.417L485.223 412.814L517.592 389.313L505.687 372.917L473.319 396.417ZM487.265 386.921C482.315 391.872 477.782 394.547 473.746 395.866L486.169 433.888C497.256 430.265 507.023 423.732 515.549 415.206L487.265 386.921ZM473.689 395.884C468.469 397.607 462.415 398.583 455.362 398.583V438.583C466.128 438.583 476.471 437.088 486.225 433.87L473.689 395.884ZM455.362 398.583C449.54 398.583 444.485 397.621 440.009 395.889L425.569 433.191C435.019 436.85 445.013 438.583 455.362 438.583V398.583ZM440.009 395.889C435.287 394.061 431.503 391.652 428.415 388.746L401.001 417.874C408.095 424.551 416.366 429.629 425.569 433.191L440.009 395.889ZM428.528 388.852C425.409 385.871 422.905 382.313 421.01 377.987L384.373 394.042C388.317 403.043 393.824 411.015 400.888 417.767L428.528 388.852ZM421.085 378.161C419.426 374.276 418.424 369.58 418.424 363.778H378.424C378.424 374.298 380.267 384.427 384.298 393.868L421.085 378.161ZM418.424 363.778C418.424 358.076 419.358 353.291 420.967 349.198L383.742 334.559C380.11 343.794 378.424 353.608 378.424 363.778H418.424ZM420.924 349.307C422.695 344.878 425.023 341.361 427.836 338.504L399.334 310.44C392.563 317.316 387.404 325.403 383.785 334.451L420.924 349.307ZM427.835 338.505C430.675 335.622 434.123 333.305 438.42 331.586L423.564 294.447C414.385 298.119 406.228 303.439 399.335 310.438L427.835 338.505ZM438.597 331.514C442.649 329.849 447.476 328.861 453.341 328.861V288.861C442.884 288.861 432.812 290.644 423.388 294.519L438.597 331.514ZM453.341 328.861C459.469 328.861 464.442 329.91 468.557 331.655L484.169 294.827C474.509 290.732 464.133 288.861 453.341 288.861V328.861ZM468.728 331.726C472.875 333.439 476.24 335.842 479.058 339.007L508.932 312.407C502.017 304.641 493.628 298.733 483.998 294.756L468.728 331.726ZM479.16 339.12C482.075 342.345 484.666 346.633 486.68 352.401L524.445 339.218C520.918 329.114 515.798 320 508.831 312.294L479.16 339.12ZM486.699 352.457C488.587 357.813 489.718 364.416 489.718 372.538H529.718C529.718 360.745 528.079 349.529 524.426 339.163L486.699 352.457ZM509.718 352.538H422.008V392.538H509.718V352.538ZM503.13 348.598C500.977 336.486 494.434 326.534 484.478 319.552L461.511 352.301C463.085 353.405 463.505 354.234 463.747 355.599L503.13 348.598ZM484.619 319.652C475.335 313.021 464.688 309.75 453.341 309.75V349.75C456.668 349.75 459.123 350.597 461.369 352.201L484.619 319.652ZM453.341 309.75C441.995 309.75 431.358 313.018 422.05 319.582L445.101 352.272C447.472 350.599 450.012 349.75 453.341 349.75V309.75ZM422.191 319.483C412.153 326.432 405.497 336.393 403.327 348.598L442.71 355.599C442.936 354.328 443.318 353.507 444.959 352.371L422.191 319.483ZM423.019 372.099H483.438V332.099H423.019V372.099ZM611.578 411.62L602.096 394.011L602.039 394.042L601.982 394.073L611.578 411.62ZM595.406 417.011L592.198 397.27L592.057 397.293L591.916 397.318L595.406 417.011ZM525.104 403.534L507.257 394.506L499.168 410.497L514.178 420.286L525.104 403.534ZM534.762 384.442L544.82 367.155L526.489 356.49L516.915 375.414L534.762 384.442ZM557.335 394.662L551.646 413.836L551.771 413.873L551.896 413.908L557.335 394.662ZM598.438 394.662L606.739 412.858L606.87 412.799L607 412.737L598.438 394.662ZM597.091 379.052L590.461 397.921L590.69 398.001L590.921 398.076L597.091 379.052ZM586.085 376.244L581.85 395.791L582.037 395.831L582.225 395.868L586.085 376.244ZM569.239 373.212L565.951 392.94L566.058 392.958L566.165 392.974L569.239 373.212ZM553.854 369.955L548.439 389.208L548.615 389.258L548.793 389.304L553.854 369.955ZM532.291 355.243L515.079 365.43L515.156 365.558L515.234 365.686L532.291 355.243ZM533.302 326.83L516.89 315.4L516.868 315.431L516.847 315.461L533.302 326.83ZM544.645 316.498L534.722 299.133L534.662 299.168L534.602 299.202L544.645 316.498ZM601.92 312.118L596.5 331.37L596.61 331.401L596.72 331.43L601.92 312.118ZM622.359 321.215L640.158 330.337L648.22 314.606L633.6 304.672L622.359 321.215ZM613.15 339.184L602.511 356.119L620.994 367.73L630.949 348.305L613.15 339.184ZM596.08 331.771L591.292 351.19L591.447 351.228L591.602 351.264L596.08 331.771ZM561.041 331.996L567.197 351.025L567.449 350.944L567.697 350.856L561.041 331.996ZM554.64 335.478L567.712 350.614L567.738 350.592L567.763 350.57L554.64 335.478ZM559.469 347.606L552.541 366.368L552.714 366.432L552.887 366.493L559.469 347.606ZM584.625 352.772L581.744 372.564L581.803 372.572L581.861 372.581L584.625 352.772ZM602.257 356.254L597.087 375.574L597.214 375.608L597.342 375.641L602.257 356.254ZM615.958 361.869L605.328 378.81L605.448 378.886L605.57 378.96L615.958 361.869ZM624.83 370.966L607.38 380.738L607.497 380.946L607.619 381.152L624.83 370.966ZM608.087 384.667C608.087 386.592 607.868 387.847 607.662 388.593C607.466 389.3 607.279 389.564 607.246 389.609L639.719 412.967C645.871 404.413 648.087 394.433 648.087 384.667H608.087ZM607.246 389.609C606.04 391.286 604.431 392.753 602.096 394.011L621.06 429.23C628.458 425.246 634.785 419.825 639.719 412.967L607.246 389.609ZM601.982 394.073C599.388 395.491 596.197 396.62 592.198 397.27L598.614 436.752C606.595 435.455 614.185 432.99 621.174 429.168L601.982 394.073ZM591.916 397.318C587.09 398.173 582.456 398.583 577.999 398.583V438.583C584.922 438.583 591.893 437.945 598.896 436.704L591.916 397.318ZM577.999 398.583C570.462 398.583 562.887 397.489 555.221 395.238L543.951 433.617C555.152 436.907 566.519 438.583 577.999 438.583V398.583ZM555.221 395.238C547.306 392.914 540.999 390.023 536.029 386.782L514.178 420.286C522.984 426.029 532.999 430.401 543.951 433.617L555.221 395.238ZM542.95 412.562L552.608 393.471L516.915 375.414L507.257 394.506L542.95 412.562ZM524.704 401.729C533.881 407.069 542.89 411.238 551.646 413.836L563.024 375.488C558.153 374.043 552.114 371.399 544.82 367.155L524.704 401.729ZM551.896 413.908C560.484 416.335 569.201 417.582 577.999 417.582V377.582C573.021 377.582 567.962 376.882 562.774 375.416L551.896 413.908ZM577.999 417.582C587.93 417.582 598.374 416.674 606.739 412.858L590.138 376.466C590.348 376.37 589.611 376.723 587.3 377.053C585.095 377.368 582.044 377.582 577.999 377.582V417.582ZM607 412.737C615.438 408.74 624.84 400.291 624.84 386.352H584.84C584.84 383.726 585.749 381.001 587.395 378.864C588.813 377.023 590.108 376.478 589.877 376.587L607 412.737ZM624.84 386.352C624.84 379.404 622.168 372.6 616.722 367.493L589.364 396.675C588.05 395.443 586.815 393.79 585.958 391.754C585.11 389.74 584.84 387.848 584.84 386.352H624.84ZM616.722 367.493C612.311 363.358 606.988 361.236 603.261 360.027L590.921 398.076C591.592 398.294 591.757 398.395 591.578 398.304C591.475 398.252 591.218 398.115 590.858 397.874C590.5 397.634 589.973 397.245 589.364 396.675L616.722 367.493ZM603.721 360.183C599.682 358.764 594.977 357.61 589.945 356.62L582.225 395.868C586.327 396.675 588.959 397.393 590.461 397.921L603.721 360.183ZM590.32 356.698C585.308 355.612 579.274 354.532 572.313 353.45L566.165 392.974C572.681 393.988 577.878 394.93 581.85 395.791L590.32 356.698ZM572.527 353.484C567.682 352.677 563.148 351.713 558.914 350.606L548.793 389.304C554.292 390.742 560.015 391.95 565.951 392.94L572.527 353.484ZM559.268 350.702C556.172 349.831 553.852 348.739 552.099 347.594L530.227 381.085C535.812 384.732 541.952 387.384 548.439 389.208L559.268 350.702ZM552.099 347.594C550.865 346.789 550.017 345.892 549.348 344.8L515.234 365.686C519.058 371.932 524.124 377.099 530.227 381.085L552.099 347.594ZM549.503 345.057C549.626 345.265 549.034 344.436 549.034 341.43H509.034C509.034 349.504 510.614 357.884 515.079 365.43L549.503 345.057ZM549.034 341.43C549.034 339.361 549.496 338.575 549.756 338.199L516.847 315.461C511.417 323.321 509.034 332.268 509.034 341.43H549.034ZM549.714 338.26C550.88 336.585 552.441 335.098 554.687 333.794L534.602 299.202C527.565 303.288 521.563 308.689 516.89 315.4L549.714 338.26ZM554.567 333.863C557.277 332.315 560.531 331.064 564.498 330.25L556.461 291.066C548.748 292.648 541.446 295.291 534.722 299.133L554.567 333.863ZM564.498 330.25C569.043 329.318 573.537 328.861 577.999 328.861V288.861C570.781 288.861 563.595 289.603 556.461 291.066L564.498 330.25ZM577.999 328.861C584.454 328.861 590.601 329.709 596.5 331.37L607.34 292.867C597.816 290.185 588.016 288.861 577.999 288.861V328.861ZM596.72 331.43C602.654 333.028 607.366 335.207 611.119 337.757L633.6 304.672C625.673 299.286 616.758 295.401 607.119 292.806L596.72 331.43ZM604.561 312.093L595.352 330.062L630.949 348.305L640.158 330.337L604.561 312.093ZM623.789 322.248C616.444 317.634 608.689 314.147 600.558 312.279L591.602 351.264C594.551 351.941 598.177 353.396 602.511 356.119L623.789 322.248ZM600.868 312.353C593.597 310.56 585.935 309.75 577.999 309.75V349.75C583.24 349.75 587.632 350.287 591.292 351.19L600.868 312.353ZM577.999 309.75C574.51 309.75 570.962 309.938 567.361 310.298L571.342 350.1C573.731 349.861 575.947 349.75 577.999 349.75V309.75ZM567.361 310.298C562.955 310.739 558.6 311.649 554.385 313.136L567.697 350.856C568.574 350.547 569.759 350.258 571.342 350.1L567.361 310.298ZM554.885 312.967C550.211 314.479 545.591 316.842 541.516 320.385L567.763 350.57C567.46 350.833 567.214 350.985 567.087 351.054C566.965 351.12 566.983 351.094 567.197 351.025L554.885 312.967ZM541.567 320.341C535.713 325.397 532.169 332.598 532.169 340.756H572.169C572.169 342.402 571.827 344.363 570.9 346.343C569.983 348.303 568.762 349.708 567.712 350.614L541.567 320.341ZM532.169 340.756C532.169 357.619 547.081 364.352 552.541 366.368L566.396 328.845C565.229 328.413 566.168 328.544 567.68 329.962C568.535 330.764 569.699 332.101 570.645 334.066C571.628 336.106 572.169 338.406 572.169 340.756H532.169ZM552.887 366.493C559.791 368.899 569.84 370.831 581.744 372.564L587.506 332.981C575.751 331.27 569.029 329.758 566.05 328.72L552.887 366.493ZM581.861 372.581C587.63 373.385 592.689 374.397 597.087 375.574L607.427 336.934C601.193 335.266 594.498 333.956 587.389 332.964L581.861 372.581ZM597.342 375.641C601.059 376.583 603.61 377.732 605.328 378.81L626.588 344.928C620.669 341.214 614.087 338.62 607.172 336.867L597.342 375.641ZM605.57 378.96C606.57 379.568 607.039 380.129 607.38 380.738L642.28 361.194C638.429 354.316 632.983 348.813 626.346 344.779L605.57 378.96ZM607.619 381.152C607.518 380.982 608.087 381.793 608.087 384.667H648.087C648.087 376.61 646.485 368.287 642.042 360.779L607.619 381.152ZM757.574 382.646L777.457 384.81L779.389 367.059L761.97 363.134L757.574 382.646ZM744.547 408.925L757.663 424.023L757.669 424.019L757.674 424.014L744.547 408.925ZM678.399 394.213L659.718 401.356L659.782 401.523L659.849 401.688L678.399 394.213ZM675.479 332.333H695.479V312.333H675.479V332.333ZM651.783 332.333H631.783V352.333H651.783V332.333ZM651.783 311.332V291.332H631.783V311.332H651.783ZM675.479 311.332V331.332H695.479V311.332H675.479ZM675.479 269.442V249.442H655.479V269.442H675.479ZM698.727 269.442H718.727V249.442H698.727V269.442ZM698.727 311.332H678.727V331.332H698.727V311.332ZM742.638 311.332H762.638V291.332H742.638V311.332ZM742.638 332.333V352.333H762.638V332.333H742.638ZM698.727 332.333V312.333H678.727V332.333H698.727ZM737.135 378.041L741.53 358.53L719.725 353.618L717.257 375.832L737.135 378.041ZM737.692 380.481C736.97 387.108 734.659 391.018 731.42 393.836L757.674 424.014C769.409 413.805 775.782 400.195 777.457 384.81L737.692 380.481ZM731.431 393.826C728.153 396.674 723.731 398.583 716.695 398.583V438.583C731.971 438.583 746.117 434.054 757.663 424.023L731.431 393.826ZM716.695 398.583C712.779 398.583 709.705 397.945 707.23 396.962L692.469 434.139C700.176 437.199 708.333 438.583 716.695 438.583V398.583ZM707.23 396.962C704.473 395.868 702.485 394.506 700.964 392.986L672.68 421.27C678.347 426.937 685.044 431.191 692.469 434.139L707.23 396.962ZM700.964 392.986C699.394 391.415 698.031 389.42 696.95 386.737L659.849 401.688C662.811 409.038 667.063 415.653 672.68 421.27L700.964 392.986ZM697.08 387.07C696.088 384.475 695.479 381.381 695.479 377.592H655.479C655.479 385.781 656.818 393.769 659.718 401.356L697.08 387.07ZM695.479 377.592V332.333H655.479V377.592H695.479ZM675.479 312.333H651.783V352.333H675.479V312.333ZM671.783 332.333V311.332H631.783V332.333H671.783ZM651.783 331.332H675.479V291.332H651.783V331.332ZM695.479 311.332V269.442H655.479V311.332H695.479ZM675.479 289.442H698.727V249.442H675.479V289.442ZM678.727 269.442V311.332H718.727V269.442H678.727ZM698.727 331.332H742.638V291.332H698.727V331.332ZM722.638 311.332V332.333H762.638V311.332H722.638ZM742.638 312.333H698.727V352.333H742.638V312.333ZM678.727 332.333V377.592H718.727V332.333H678.727ZM678.727 377.592C678.727 387.261 681.083 398.34 689.526 406.783L717.81 378.498C718.205 378.894 718.497 379.29 718.697 379.626C718.892 379.953 718.961 380.159 718.964 380.168C718.965 380.171 718.903 379.982 718.842 379.547C718.781 379.111 718.727 378.47 718.727 377.592H678.727ZM689.526 406.783C697.164 414.421 706.902 417.582 716.695 417.582V377.582C716.04 377.582 716.061 377.485 716.489 377.647C716.696 377.725 716.944 377.845 717.2 378.011C717.457 378.177 717.662 378.35 717.81 378.498L689.526 406.783ZM716.695 417.582C727.173 417.582 738.551 414.409 746.698 404.746L716.117 378.963C716.409 378.616 716.763 378.289 717.152 378.015C717.537 377.743 717.863 377.589 718.059 377.513C718.421 377.372 718.109 377.582 716.695 377.582V417.582ZM746.698 404.746C752.691 397.639 756.015 389.223 757.012 380.25L717.257 375.832C717.056 377.64 716.563 378.434 716.117 378.963L746.698 404.746ZM732.739 397.552L753.179 402.157L761.97 363.134L741.53 358.53L732.739 397.552ZM798.678 372.538V352.538H775.31L778.917 375.626L798.678 372.538ZM808.897 390.507L796.015 405.805L796.123 405.896L796.233 405.986L808.897 390.507ZM851.686 394.101L859.413 412.547L859.474 412.522L859.534 412.496L851.686 394.101ZM866.173 384.667L882.357 372.917L868.855 354.319L852.3 370.261L866.173 384.667ZM878.077 401.063L892.219 415.206L904.294 403.131L894.261 389.313L878.077 401.063ZM856.627 414.877L850.415 395.866L850.387 395.875L850.359 395.884L856.627 414.877ZM791.378 403.31L777.558 417.767L777.614 417.821L777.671 417.874L791.378 403.31ZM779.361 386.015L760.968 393.868L761.005 393.955L761.043 394.042L779.361 386.015ZM779.024 341.879L760.455 334.451L760.433 334.505L760.412 334.559L779.024 341.879ZM790.255 324.472L776.005 310.438L776.004 310.44L790.255 324.472ZM807.662 313.017L815.09 331.586L815.179 331.551L815.267 331.514L807.662 313.017ZM853.033 313.241L845.227 331.655L845.313 331.691L845.398 331.726L853.033 313.241ZM870.665 325.707L855.728 339.007L855.779 339.064L855.83 339.12L870.665 325.707ZM882.232 345.81L863.35 352.401L863.359 352.429L863.369 352.457L882.232 345.81ZM886.388 372.538V392.538H906.388V372.538H886.388ZM860.108 352.099V372.099H883.978L879.8 348.598L860.108 352.099ZM849.664 335.927L838.039 352.201L838.11 352.252L838.181 352.301L849.664 335.927ZM810.245 335.927L821.629 352.371L821.7 352.322L821.771 352.272L810.245 335.927ZM799.688 352.099L779.997 348.598L775.819 372.099H799.688V352.099ZM778.917 375.626C780.804 387.696 786.726 397.983 796.015 405.805L821.78 375.209C819.689 373.447 818.798 371.755 818.438 369.451L778.917 375.626ZM796.233 405.986C806.515 414.399 819.145 417.582 832.032 417.582V377.582C825.603 377.582 822.81 376.048 821.562 375.028L796.233 405.986ZM832.032 417.582C841.585 417.582 850.881 416.122 859.413 412.547L843.958 375.654C841.409 376.721 837.603 377.582 832.032 377.582V417.582ZM859.534 412.496C867.187 409.231 874.106 404.793 880.046 399.073L852.3 370.261C850.154 372.327 847.415 374.178 843.837 375.705L859.534 412.496ZM849.989 396.417L861.893 412.814L894.261 389.313L882.357 372.917L849.989 396.417ZM863.935 386.921C858.984 391.872 854.452 394.547 850.415 395.866L862.838 433.888C873.926 430.265 883.693 423.732 892.219 415.206L863.935 386.921ZM850.359 395.884C845.139 397.607 839.085 398.583 832.032 398.583V438.583C842.798 438.583 853.141 437.088 862.895 433.87L850.359 395.884ZM832.032 398.583C826.21 398.583 821.155 397.621 816.679 395.889L802.239 433.191C811.689 436.85 821.683 438.583 832.032 438.583V398.583ZM816.679 395.889C811.957 394.061 808.173 391.652 805.085 388.746L777.671 417.874C784.765 424.551 793.036 429.629 802.239 433.191L816.679 395.889ZM805.198 388.852C802.079 385.871 799.575 382.313 797.68 377.987L761.043 394.042C764.987 403.043 770.494 411.015 777.558 417.767L805.198 388.852ZM797.755 378.161C796.096 374.276 795.094 369.58 795.094 363.778H755.094C755.094 374.298 756.937 384.427 760.968 393.868L797.755 378.161ZM795.094 363.778C795.094 358.076 796.028 353.291 797.637 349.198L760.412 334.559C756.78 343.794 755.094 353.608 755.094 363.778H795.094ZM797.594 349.307C799.365 344.878 801.693 341.361 804.506 338.504L776.004 310.44C769.233 317.316 764.074 325.403 760.455 334.451L797.594 349.307ZM804.505 338.505C807.345 335.622 810.793 333.305 815.09 331.586L800.234 294.447C791.055 298.119 782.898 303.439 776.005 310.438L804.505 338.505ZM815.267 331.514C819.319 329.849 824.146 328.861 830.011 328.861V288.861C819.554 288.861 809.482 290.644 800.057 294.519L815.267 331.514ZM830.011 328.861C836.139 328.861 841.112 329.91 845.227 331.655L860.839 294.827C851.179 290.732 840.803 288.861 830.011 288.861V328.861ZM845.398 331.726C849.545 333.439 852.91 335.842 855.728 339.007L885.602 312.407C878.687 304.641 870.298 298.733 860.668 294.756L845.398 331.726ZM855.83 339.12C858.745 342.345 861.336 346.633 863.35 352.401L901.115 339.218C897.588 329.114 892.468 320 885.501 312.294L855.83 339.12ZM863.369 352.457C865.257 357.813 866.388 364.416 866.388 372.538H906.388C906.388 360.745 904.749 349.529 901.096 339.163L863.369 352.457ZM886.388 352.538H798.678V392.538H886.388V352.538ZM879.8 348.598C877.646 336.486 871.104 326.534 861.148 319.552L838.181 352.301C839.754 353.405 840.175 354.234 840.417 355.599L879.8 348.598ZM861.289 319.652C852.005 313.021 841.358 309.75 830.011 309.75V349.75C833.338 349.75 835.793 350.597 838.039 352.201L861.289 319.652ZM830.011 309.75C818.665 309.75 808.028 313.018 798.72 319.582L821.771 352.272C824.142 350.599 826.682 349.75 830.011 349.75V309.75ZM798.861 319.483C788.823 326.432 782.167 336.393 779.997 348.598L819.38 355.599C819.606 354.328 819.988 353.507 821.629 352.371L798.861 319.483ZM799.688 372.099H860.108V332.099H799.688V372.099ZM1004.98 336.151L996.232 354.136L1015.8 363.656L1023.64 343.356L1004.98 336.151ZM996.446 333.119L991.356 352.461L991.652 352.538L991.949 352.607L996.446 333.119ZM971.964 334.354L978.288 353.328L978.381 353.297L978.474 353.265L971.964 334.354ZM960.284 341.205L946.65 326.573L960.284 341.205ZM952.535 352.772L933.986 345.293L933.955 345.371L933.924 345.45L952.535 352.772ZM949.84 395.111H929.84V415.111H949.84V395.111ZM973.312 395.111H993.312V375.111H973.312V395.111ZM973.312 416V436H993.312V416H973.312ZM902.896 416H882.896V436H902.896V416ZM902.896 395.111V375.111H882.896V395.111H902.896ZM926.593 395.111V415.111H946.593V395.111H926.593ZM926.593 332.333H946.593V312.333H926.593V332.333ZM902.896 332.333H882.896V352.333H902.896V332.333ZM902.896 311.332V291.332H882.896V311.332H902.896ZM949.84 311.332H969.84V291.332H949.84V311.332ZM949.84 337.611H929.84L968.632 344.457L949.84 337.611ZM966.686 315.375L956.651 298.074L956.613 298.096L956.576 298.118L966.686 315.375ZM1013.74 313.466L1032.4 320.67L1038.89 303.859L1022.84 295.657L1013.74 313.466ZM1013.73 318.167C1009.64 316.178 1005.37 314.654 1000.94 313.631L991.949 352.607C993.359 352.932 994.78 353.43 996.232 354.136L1013.73 318.167ZM1001.54 313.778C996.651 312.492 991.583 311.996 986.563 311.996V351.996C989.031 351.996 990.552 352.249 991.356 352.461L1001.54 313.778ZM986.563 311.996C979.337 311.996 972.257 313.102 965.454 315.444L978.474 353.265C980.805 352.463 983.458 351.996 986.563 351.996V311.996ZM965.639 315.381C958.571 317.737 952.149 321.448 946.65 326.573L973.919 355.837C975.008 354.822 976.372 353.967 978.288 353.328L965.639 315.381ZM946.65 326.573C940.985 331.851 936.83 338.241 933.986 345.293L971.084 360.252C971.984 358.02 972.995 356.698 973.919 355.837L946.65 326.573ZM933.924 345.45C930.991 352.904 929.84 360.935 929.84 369.057H969.84C969.84 364.6 970.485 361.775 971.146 360.095L933.924 345.45ZM929.84 369.057V395.111H969.84V369.057H929.84ZM949.84 415.111H973.312V375.111H949.84V415.111ZM953.312 395.111V416H993.312V395.111H953.312ZM973.312 396H902.896V436H973.312V396ZM922.896 416V395.111H882.896V416H922.896ZM902.896 415.111H926.593V375.111H902.896V415.111ZM946.593 395.111V332.333H906.593V395.111H946.593ZM926.593 312.333H902.896V352.333H926.593V312.333ZM922.896 332.333V311.332H882.896V332.333H922.896ZM902.896 331.332H949.84V291.332H902.896V331.332ZM929.84 311.332V337.611H969.84V311.332H929.84ZM968.632 344.457C971.339 337.025 974.47 333.994 976.795 332.632L956.576 298.118C944.077 305.441 935.977 317.234 931.048 330.766L968.632 344.457ZM976.72 332.676C980.637 330.404 985.913 328.861 993.302 328.861V288.861C980.176 288.861 967.708 291.662 956.651 298.074L976.72 332.676ZM993.302 328.861C995.127 328.861 997.232 329.053 999.648 329.515L1007.17 290.229C1002.55 289.344 997.916 288.861 993.302 288.861V328.861ZM999.648 329.515C1001.21 329.814 1002.86 330.365 1004.64 331.275L1022.84 295.657C1017.88 293.122 1012.65 291.278 1007.17 290.229L999.648 329.515ZM995.084 306.261L986.324 328.947L1023.64 343.356L1032.4 320.67L995.084 306.261ZM1241.38 416V436H1261.38V416H1241.38ZM1171.08 416H1151.08V436H1171.08V416ZM1171.08 395.111V375.111H1151.08V395.111H1171.08ZM1194.66 395.111V415.111H1214.66V395.111H1194.66ZM1194.66 311.781H1214.66L1175.43 306.287L1194.66 311.781ZM1189.16 321.552L1174.45 308.002L1174.35 308.108L1174.26 308.216L1189.16 321.552ZM1179.84 328.739L1189.08 346.478L1189.15 346.442L1189.21 346.406L1179.84 328.739ZM1167.71 333.119L1172.01 352.651L1172.14 352.624L1172.26 352.596L1167.71 333.119ZM1154.01 334.579H1134.01V354.579H1154.01V334.579ZM1154.01 311.332V291.332H1134.01V311.332H1154.01ZM1168.83 308.861L1175.34 327.775L1175.42 327.746L1175.51 327.716L1168.83 308.861ZM1181.86 301.112L1195.26 315.964L1181.86 301.112ZM1191.07 288.197L1172.88 279.882L1172.85 279.941L1172.83 280.001L1191.07 288.197ZM1194.66 269.442V249.442H1174.66V269.442H1194.66ZM1217.91 269.442H1237.91V249.442H1217.91V269.442ZM1217.91 395.111H1197.91V415.111H1217.91V395.111ZM1241.38 395.111H1261.38V375.111H1241.38V395.111ZM1241.38 396H1171.08V436H1241.38V396ZM1191.08 416V395.111H1151.08V416H1191.08ZM1171.08 415.111H1194.66V375.111H1171.08V415.111ZM1214.66 395.111V311.781H1174.66V395.111H1214.66ZM1175.43 306.287C1175.25 306.912 1174.99 307.42 1174.45 308.002L1203.87 335.101C1208.58 329.993 1211.98 323.988 1213.89 317.276L1175.43 306.287ZM1174.26 308.216C1173.42 309.154 1172.23 310.134 1170.47 311.072L1189.21 346.406C1194.78 343.451 1199.81 339.64 1204.07 334.888L1174.26 308.216ZM1170.6 311.001C1168.68 312.001 1166.25 312.923 1163.17 313.642L1172.26 352.596C1178.16 351.219 1183.81 349.221 1189.08 346.478L1170.6 311.001ZM1163.41 313.588C1160.46 314.237 1157.34 314.579 1154.01 314.579V354.579C1160.11 354.579 1166.12 353.948 1172.01 352.651L1163.41 313.588ZM1174.01 334.579V311.332H1134.01V334.579H1174.01ZM1154.01 331.332C1161.3 331.332 1168.44 330.145 1175.34 327.775L1162.33 289.948C1159.64 290.872 1156.9 291.332 1154.01 291.332V331.332ZM1175.51 327.716C1182.85 325.119 1189.47 321.179 1195.26 315.964L1168.47 286.261C1166.61 287.934 1164.56 289.16 1162.16 290.007L1175.51 327.716ZM1195.26 315.964C1201.34 310.481 1205.97 303.832 1209.31 296.394L1172.83 280.001C1171.53 282.895 1170.02 284.856 1168.47 286.261L1195.26 315.964ZM1209.26 296.512C1213.12 288.076 1214.66 278.851 1214.66 269.442H1174.66C1174.66 274.559 1173.82 277.837 1172.88 279.882L1209.26 296.512ZM1194.66 289.442H1217.91V249.442H1194.66V289.442ZM1197.91 269.442V395.111H1237.91V269.442H1197.91ZM1217.91 415.111H1241.38V375.111H1217.91V415.111ZM1221.38 395.111V416H1261.38V395.111H1221.38Z" fill="#0996CE"/>
<path d="M305.4 560.55L305.7 557.85C307.233 557.55 308.25 557.117 308.75 556.55C309.283 555.95 309.55 554.95 309.55 553.55L309.6 533.35C309.6 532.283 309.467 531.567 309.2 531.2C308.967 530.833 308.483 530.65 307.75 530.65C307.517 530.65 307.2 530.667 306.8 530.7C306.433 530.7 306.1 530.717 305.8 530.75L305.65 530.45L306 527.95C306.967 527.95 308.05 527.967 309.25 528C310.483 528.033 311.533 528.05 312.4 528.05C313.067 528.05 313.983 528.017 315.15 527.95C316.317 527.85 317.517 527.75 318.75 527.65L318.5 530.35C317.167 530.517 316.267 530.783 315.8 531.15C315.367 531.517 315.117 532.183 315.05 533.15C314.95 534.883 314.85 536.717 314.75 538.65C314.683 540.583 314.617 542.517 314.55 544.45C314.517 546.35 314.483 548.133 314.45 549.8C314.417 551.433 314.4 552.817 314.4 553.95C314.4 555.283 314.533 556.183 314.8 556.65C315.1 557.117 315.65 557.35 316.45 557.35C316.883 557.35 317.317 557.333 317.75 557.3C318.217 557.267 318.6 557.233 318.9 557.2L319.05 557.45L318.6 560.15C317.933 560.117 317.167 560.083 316.3 560.05C315.433 560.05 314.583 560.033 313.75 560C312.917 560 312.233 560 311.7 560C310.933 560 309.967 560.05 308.8 560.15C307.633 560.25 306.5 560.383 305.4 560.55ZM348.664 561.7C346.464 558.2 344.347 554.933 342.314 551.9C340.281 548.833 338.481 546.15 336.914 543.85C335.347 541.55 334.097 539.75 333.164 538.45C332.264 537.117 331.814 536.45 331.814 536.45H331.464L331.264 555.25C331.297 556.017 331.431 556.567 331.664 556.9C331.897 557.2 332.314 557.35 332.914 557.35C333.081 557.35 333.347 557.35 333.714 557.35C334.114 557.317 334.481 557.3 334.814 557.3C335.147 557.3 335.314 557.3 335.314 557.3L335.464 557.55L335.014 560.2C335.014 560.2 334.814 560.183 334.414 560.15C334.014 560.15 333.514 560.133 332.914 560.1C332.314 560.067 331.681 560.033 331.014 560C330.347 560 329.747 560 329.214 560C328.447 560 327.647 560.033 326.814 560.1C326.014 560.167 325.331 560.233 324.764 560.3C324.197 560.367 323.914 560.4 323.914 560.4L324.214 557.65C325.247 557.517 325.997 557.217 326.464 556.75C326.964 556.283 327.231 555.533 327.264 554.5L327.914 533.55C327.914 532.483 327.614 531.75 327.014 531.35C326.447 530.917 325.331 530.617 323.664 530.45L323.464 530.1L323.814 527.8C323.814 527.8 324.097 527.817 324.664 527.85C325.231 527.883 325.897 527.933 326.664 528C327.431 528.033 328.131 528.05 328.764 528.05C329.397 528.05 330.014 528.033 330.614 528C331.214 527.967 331.714 527.933 332.114 527.9C332.514 527.867 332.714 527.85 332.714 527.85C334.247 530.217 335.747 532.533 337.214 534.8C338.681 537.033 340.064 539.133 341.364 541.1C342.664 543.033 343.814 544.733 344.814 546.2C345.847 547.633 346.647 548.767 347.214 549.6C347.781 550.4 348.064 550.8 348.064 550.8H348.414L348.364 532.85C348.364 532.083 348.231 531.533 347.964 531.2C347.697 530.867 347.281 530.7 346.714 530.7C346.314 530.7 345.914 530.717 345.514 530.75C345.147 530.75 344.947 530.75 344.914 530.75L344.764 530.45L345.164 527.85C345.164 527.85 345.347 527.867 345.714 527.9C346.114 527.9 346.597 527.917 347.164 527.95C347.764 527.983 348.364 528.017 348.964 528.05C349.597 528.05 350.164 528.05 350.664 528.05C351.397 528.05 352.181 528.033 353.014 528C353.847 527.933 354.547 527.867 355.114 527.8C355.714 527.733 356.014 527.7 356.014 527.7L355.764 530.45C354.631 530.583 353.797 530.9 353.264 531.4C352.764 531.9 352.497 532.633 352.464 533.6L351.764 561.05L348.664 561.7ZM359.747 560.6L360.047 557.8C361.58 557.533 362.597 557.1 363.097 556.5C363.597 555.9 363.847 554.9 363.847 553.5L363.897 533.35C363.897 532.283 363.78 531.567 363.547 531.2C363.347 530.833 362.88 530.65 362.147 530.65C361.847 530.65 361.497 530.667 361.097 530.7C360.697 530.733 360.497 530.75 360.497 530.75L360.297 530.45L360.697 527.9C360.697 527.9 360.947 527.917 361.447 527.95C361.947 527.95 362.597 527.967 363.397 528C364.197 528 365.064 528.017 365.997 528.05C366.93 528.05 367.797 528.05 368.597 528.05C370.83 528.05 372.797 528.033 374.497 528C376.23 527.967 377.764 527.9 379.097 527.8C380.464 527.7 381.647 527.583 382.647 527.45L382.897 527.85C382.897 527.85 382.83 528.267 382.697 529.1C382.564 529.9 382.397 530.967 382.197 532.3C382.03 533.633 381.897 535.067 381.797 536.6L378.497 536.85C378.497 536.85 378.514 536.567 378.547 536C378.58 535.433 378.597 534.983 378.597 534.65C378.597 533.617 378.464 532.867 378.197 532.4C377.93 531.933 377.364 531.633 376.497 531.5C375.63 531.333 374.297 531.25 372.497 531.25C371.53 531.25 370.83 531.283 370.397 531.35C369.964 531.417 369.68 531.583 369.547 531.85C369.447 532.117 369.38 532.533 369.347 533.1L368.947 542.8L373.897 542.85C374.43 542.85 375.097 542.817 375.897 542.75C376.73 542.65 377.48 542.567 378.147 542.5C378.814 542.4 379.147 542.35 379.147 542.35L379.447 542.7L378.747 546.25C378.747 546.25 378.397 546.233 377.697 546.2C377.03 546.167 376.214 546.15 375.247 546.15C374.314 546.117 373.464 546.1 372.697 546.1C371.964 546.1 371.247 546.15 370.547 546.25C369.847 546.317 369.28 546.383 368.847 546.45L368.697 553.75C368.697 555.05 368.83 555.933 369.097 556.4C369.397 556.833 369.98 557.05 370.847 557.05C371.214 557.05 371.664 557.033 372.197 557C372.764 556.967 373.247 556.933 373.647 556.9C374.08 556.867 374.297 556.85 374.297 556.85L374.497 557.2L374.047 560.2C374.047 560.2 373.764 560.183 373.197 560.15C372.664 560.15 371.997 560.133 371.197 560.1C370.397 560.067 369.564 560.033 368.697 560C367.83 560 367.08 560 366.447 560C365.414 560 364.38 560.05 363.347 560.15C362.314 560.25 361.447 560.35 360.747 560.45C360.08 560.55 359.747 560.6 359.747 560.6ZM398.683 560.6C395.849 560.6 393.383 559.967 391.283 558.7C389.183 557.4 387.549 555.583 386.383 553.25C385.216 550.883 384.633 548.133 384.633 545C384.633 542.467 385.033 540.133 385.833 538C386.633 535.867 387.766 534.017 389.233 532.45C390.733 530.85 392.483 529.617 394.483 528.75C396.483 527.883 398.666 527.45 401.033 527.45C403.966 527.45 406.499 528.1 408.633 529.4C410.766 530.667 412.416 532.467 413.583 534.8C414.783 537.1 415.383 539.817 415.383 542.95C415.383 545.517 414.966 547.883 414.133 550.05C413.299 552.183 412.133 554.033 410.633 555.6C409.166 557.167 407.416 558.4 405.383 559.3C403.349 560.167 401.116 560.6 398.683 560.6ZM400.133 557.3C402.033 557.3 403.666 556.817 405.033 555.85C406.433 554.85 407.516 553.45 408.283 551.65C409.083 549.85 409.483 547.733 409.483 545.3C409.483 542.367 409.066 539.867 408.233 537.8C407.399 535.7 406.233 534.083 404.733 532.95C403.266 531.817 401.516 531.25 399.483 531.25C397.649 531.25 396.049 531.75 394.683 532.75C393.316 533.717 392.249 535.1 391.483 536.9C390.749 538.667 390.383 540.767 390.383 543.2C390.383 546.1 390.783 548.6 391.583 550.7C392.383 552.8 393.516 554.433 394.983 555.6C396.449 556.733 398.166 557.3 400.133 557.3ZM442.713 560.8C441.779 560.8 440.846 560.383 439.913 559.55C438.979 558.717 438.113 557.567 437.313 556.1L432.463 546.8H428.563L428.463 553.45C428.463 554.617 428.529 555.483 428.663 556.05C428.829 556.617 429.163 556.983 429.663 557.15C430.196 557.317 430.996 557.417 432.063 557.45L432.163 557.65L431.713 560.2C431.713 560.2 431.513 560.183 431.113 560.15C430.713 560.15 430.213 560.133 429.613 560.1C429.013 560.1 428.379 560.083 427.713 560.05C427.046 560.05 426.413 560.05 425.813 560.05C424.913 560.017 423.963 560.017 422.963 560.05C421.996 560.083 421.163 560.117 420.463 560.15C419.796 560.217 419.463 560.25 419.463 560.25L419.913 557.5C421.413 557.333 422.396 556.983 422.863 556.45C423.363 555.917 423.613 554.933 423.613 553.5L423.662 533.25C423.662 532.25 423.546 531.567 423.312 531.2C423.079 530.833 422.613 530.65 421.913 530.65C421.613 530.65 421.246 530.667 420.813 530.7C420.413 530.733 420.213 530.75 420.213 530.75L420.013 530.5L420.413 527.9C420.413 527.9 420.613 527.917 421.013 527.95C421.446 527.95 421.979 527.967 422.613 528C423.246 528 423.896 528.017 424.563 528.05C425.229 528.05 425.796 528.05 426.263 528.05C426.729 528.05 427.329 528.05 428.063 528.05C428.829 528.017 429.596 527.983 430.363 527.95C431.129 527.917 431.763 527.9 432.263 527.9C432.796 527.867 433.063 527.85 433.063 527.85C436.463 527.85 439.113 528.567 441.013 530C442.913 531.4 443.863 533.4 443.863 536C443.863 537.967 443.246 539.783 442.013 541.45C440.813 543.117 439.079 544.483 436.813 545.55L441.813 553.55C442.779 555.083 443.696 556.183 444.563 556.85C445.463 557.517 446.529 557.85 447.763 557.85L448.013 558.15L447.663 560.25L442.713 560.8ZM433.563 543.8C433.663 543.733 433.963 543.583 434.463 543.35C434.996 543.117 435.563 542.75 436.163 542.25C436.796 541.75 437.329 541.067 437.763 540.2C438.229 539.333 438.463 538.233 438.463 536.9C438.463 534.867 437.763 533.35 436.363 532.35C434.996 531.317 432.896 530.8 430.063 530.8C429.729 530.8 429.496 530.883 429.363 531.05C429.263 531.183 429.196 531.483 429.163 531.95C429.029 534.317 428.913 536.383 428.813 538.15C428.746 539.917 428.696 541.633 428.663 543.3L433.563 543.8ZM467.563 560.9C466.529 557.767 465.496 554.733 464.463 551.8C463.463 548.833 462.479 545.983 461.512 543.25C460.546 540.517 459.646 537.95 458.813 535.55H458.463C458.463 535.683 458.429 536.25 458.363 537.25C458.296 538.217 458.196 539.433 458.063 540.9C457.963 542.333 457.846 543.867 457.713 545.5C457.579 547.133 457.446 548.7 457.313 550.2C457.213 551.667 457.129 552.917 457.063 553.95C456.996 554.95 456.963 555.567 456.963 555.8C456.963 556.833 457.496 557.35 458.563 557.35C458.796 557.35 459.146 557.35 459.613 557.35C460.113 557.317 460.396 557.3 460.463 557.3L460.613 557.55L460.113 560.2C459.979 560.2 459.579 560.183 458.913 560.15C458.246 560.117 457.529 560.083 456.763 560.05C455.996 560.017 455.346 560 454.813 560C454.346 560 453.846 560.017 453.313 560.05C452.813 560.083 452.313 560.133 451.813 560.2C451.346 560.267 450.963 560.317 450.663 560.35C450.363 560.383 450.213 560.4 450.213 560.4L450.513 557.65C451.546 557.55 452.279 557.233 452.713 556.7C453.179 556.167 453.479 555.233 453.613 553.9C453.679 553.433 453.779 552.633 453.913 551.5C454.046 550.333 454.179 549 454.313 547.5C454.479 545.967 454.629 544.417 454.763 542.85C454.929 541.283 455.079 539.783 455.213 538.35C455.379 536.917 455.496 535.717 455.563 534.75C455.663 533.783 455.713 533.2 455.713 533C455.713 532.4 455.579 531.933 455.313 531.6C455.046 531.233 454.613 530.95 454.013 530.75C453.446 530.55 452.663 530.417 451.663 530.35L451.463 530.05L451.863 527.8C452.129 527.8 452.629 527.817 453.363 527.85C454.096 527.883 454.863 527.933 455.662 528C456.496 528.033 457.163 528.05 457.663 528.05C458.196 528.05 458.763 528.033 459.363 528C459.963 527.967 460.496 527.933 460.963 527.9C461.463 527.867 461.796 527.85 461.963 527.85C462.896 530.983 463.796 533.9 464.663 536.6C465.529 539.267 466.313 541.633 467.013 543.7C467.713 545.733 468.279 547.383 468.713 548.65C469.146 549.883 469.396 550.633 469.463 550.9H469.763C469.829 550.667 470.079 549.917 470.513 548.65C470.979 547.383 471.563 545.733 472.263 543.7C472.996 541.633 473.813 539.267 474.712 536.6C475.613 533.933 476.563 531.05 477.563 527.95C477.763 527.95 478.129 527.967 478.663 528C479.196 528.033 479.763 528.05 480.363 528.05C480.996 528.05 481.546 528.05 482.013 528.05C482.546 528.05 483.213 528.033 484.013 528C484.846 527.933 485.579 527.883 486.213 527.85C486.846 527.783 487.213 527.75 487.313 527.75L487.463 527.95L487.163 530.3C485.729 530.433 484.729 530.7 484.163 531.1C483.596 531.5 483.313 532.133 483.313 533C483.313 533.367 483.329 534.067 483.363 535.1C483.429 536.133 483.513 537.383 483.613 538.85C483.713 540.283 483.813 541.817 483.913 543.45C484.046 545.083 484.163 546.7 484.263 548.3C484.396 549.9 484.513 551.367 484.613 552.7C484.813 554.567 485.063 555.817 485.363 556.45C485.696 557.05 486.246 557.35 487.013 557.35C487.313 557.35 487.613 557.333 487.913 557.3C488.213 557.267 488.379 557.25 488.413 557.25L488.563 557.5L488.113 560.15C488.046 560.15 487.729 560.133 487.163 560.1C486.596 560.067 485.946 560.033 485.213 560C484.479 560 483.829 560 483.263 560C482.696 560 482.079 560.017 481.413 560.05C480.746 560.083 480.079 560.133 479.413 560.2C478.779 560.267 478.246 560.317 477.813 560.35C477.413 560.383 477.196 560.4 477.163 560.4L477.463 557.65C478.463 557.517 479.179 557.267 479.613 556.9C480.079 556.5 480.313 555.917 480.313 555.15C480.313 554.883 480.279 554.267 480.213 553.3C480.146 552.3 480.063 551.117 479.963 549.75C479.863 548.35 479.746 546.883 479.613 545.35C479.513 543.817 479.413 542.367 479.313 541C479.213 539.6 479.113 538.417 479.013 537.45C478.946 536.45 478.913 535.817 478.913 535.55H478.563C477.929 537.317 477.263 539.183 476.562 541.15C475.863 543.117 475.129 545.167 474.363 547.3C473.596 549.433 472.829 551.6 472.063 553.8C471.296 556 470.529 558.233 469.763 560.5L467.563 560.9ZM507.2 560.45L507 560.1L507.2 557.7C508.333 557.567 509.2 557.45 509.8 557.35C510.4 557.217 510.817 557.033 511.05 556.8C511.283 556.567 511.4 556.233 511.4 555.8C511.4 555.533 511.367 555.233 511.3 554.9C511.267 554.533 511.183 554.15 511.05 553.75L509.65 549C509.05 548.967 508.233 548.95 507.2 548.95C506.2 548.95 505.383 548.95 504.75 548.95C503.85 548.95 502.9 549 501.9 549.1C500.933 549.167 500.167 549.233 499.6 549.3L498 553.9C497.733 554.7 497.6 555.283 497.6 555.65C497.6 556.317 497.817 556.8 498.25 557.1C498.683 557.367 499.367 557.5 500.3 557.5H502.85L503 557.75L502.7 560.3C502.7 560.3 502.333 560.267 501.6 560.2C500.867 560.167 499.95 560.117 498.85 560.05C497.75 560.017 496.667 560 495.6 560C494.733 560 493.85 560 492.95 560C492.083 560.033 491.35 560.067 490.75 560.1C490.15 560.133 489.85 560.15 489.85 560.15L490.25 557.4C491.117 557.267 491.817 556.95 492.35 556.45C492.883 555.917 493.383 555.017 493.85 553.75L503.25 528.3L508.45 527.45L508.9 527.6C508.9 527.6 509.017 528.017 509.25 528.85C509.483 529.65 509.783 530.767 510.15 532.2C510.55 533.6 511 535.2 511.5 537C512 538.8 512.533 540.683 513.1 542.65C513.667 544.617 514.233 546.583 514.8 548.55C515.4 550.483 515.967 552.283 516.5 553.95C516.9 555.15 517.417 556 518.05 556.5C518.683 557 519.65 557.317 520.95 557.45L521.1 557.7L520.75 560.15C520.75 560.15 520.4 560.133 519.7 560.1C519.033 560.067 518.25 560.033 517.35 560C516.483 560 515.717 560 515.05 560C513.75 560 512.483 560.033 511.25 560.1C510.05 560.2 509.067 560.283 508.3 560.35C507.567 560.417 507.2 560.45 507.2 560.45ZM500.6 546.05H504.65C505.25 546.05 505.967 546.033 506.8 546C507.633 545.933 508.317 545.883 508.85 545.85L505.4 533.65H504.9L500.6 546.05ZM525.062 560.25L525.462 557.6C526.995 557.467 528.112 557.267 528.812 557C529.512 556.7 529.962 556.167 530.162 555.4C530.362 554.633 530.462 553.45 530.462 551.85V530.85C528.762 530.883 527.429 530.967 526.462 531.1C525.495 531.233 524.762 531.5 524.262 531.9C523.795 532.3 523.445 532.933 523.212 533.8C523.012 534.633 522.829 535.783 522.662 537.25L519.512 537.5C519.645 536.433 519.745 535.333 519.812 534.2C519.912 533.067 519.995 531.95 520.062 530.85C520.129 529.75 520.179 528.767 520.212 527.9L520.712 527.45L525.212 528H540.762L545.362 527.45L545.862 527.9C545.895 528.833 545.929 529.867 545.962 531C546.029 532.1 546.112 533.2 546.212 534.3C546.312 535.367 546.412 536.35 546.512 537.25L543.362 537.5C543.162 535.967 542.945 534.767 542.712 533.9C542.479 533.033 542.129 532.4 541.662 532C541.229 531.567 540.562 531.283 539.662 531.15C538.762 531.017 537.529 530.917 535.962 530.85C535.862 531.917 535.762 533.35 535.662 535.15C535.595 536.95 535.529 538.933 535.462 541.1C535.429 543.233 535.379 545.417 535.312 547.65C535.279 549.883 535.262 551.967 535.262 553.9C535.262 555.133 535.479 556.017 535.912 556.55C536.345 557.05 537.062 557.3 538.062 557.3C538.962 557.3 539.862 557.25 540.762 557.15L540.912 557.4L540.462 560.2C539.695 560.133 538.795 560.083 537.762 560.05C536.762 560.05 535.795 560.033 534.862 560C533.929 560 533.162 560 532.562 560C531.995 560 531.279 560 530.412 560C529.545 560.033 528.629 560.067 527.662 560.1C526.729 560.167 525.862 560.217 525.062 560.25ZM549.345 560.55L549.645 557.85C551.179 557.55 552.195 557.117 552.695 556.55C553.229 555.95 553.495 554.95 553.495 553.55L553.545 533.35C553.545 532.283 553.412 531.567 553.145 531.2C552.912 530.833 552.429 530.65 551.695 530.65C551.462 530.65 551.145 530.667 550.745 530.7C550.379 530.7 550.045 530.717 549.745 530.75L549.595 530.45L549.945 527.95C550.912 527.95 551.995 527.967 553.195 528C554.429 528.033 555.479 528.05 556.345 528.05C557.012 528.05 557.929 528.017 559.095 527.95C560.262 527.85 561.462 527.75 562.695 527.65L562.445 530.35C561.112 530.517 560.212 530.783 559.745 531.15C559.312 531.517 559.062 532.183 558.995 533.15C558.895 534.883 558.795 536.717 558.695 538.65C558.629 540.583 558.562 542.517 558.495 544.45C558.462 546.35 558.429 548.133 558.395 549.8C558.362 551.433 558.345 552.817 558.345 553.95C558.345 555.283 558.479 556.183 558.745 556.65C559.045 557.117 559.595 557.35 560.395 557.35C560.829 557.35 561.262 557.333 561.695 557.3C562.162 557.267 562.545 557.233 562.845 557.2L562.995 557.45L562.545 560.15C561.879 560.117 561.112 560.083 560.245 560.05C559.379 560.05 558.529 560.033 557.695 560C556.862 560 556.179 560 555.645 560C554.879 560 553.912 560.05 552.745 560.15C551.579 560.25 550.445 560.383 549.345 560.55ZM581.759 560.6C578.726 560.6 576.093 559.967 573.859 558.7C571.626 557.433 569.893 555.633 568.659 553.3C567.459 550.967 566.859 548.2 566.859 545C566.859 542.4 567.276 540.033 568.109 537.9C568.976 535.733 570.176 533.883 571.709 532.35C573.276 530.783 575.109 529.583 577.209 528.75C579.343 527.883 581.709 527.45 584.309 527.45C585.343 527.45 586.393 527.517 587.459 527.65C588.559 527.75 589.543 527.883 590.409 528.05C591.309 528.217 592.026 528.367 592.559 528.5C593.126 528.6 593.409 528.65 593.409 528.65L593.609 529.1C593.609 529.1 593.526 529.5 593.359 530.3C593.193 531.067 593.009 532.133 592.809 533.5C592.609 534.833 592.459 536.317 592.359 537.95L588.859 538.2C588.859 538.2 588.876 537.933 588.909 537.4C588.976 536.833 589.009 536.25 589.009 535.65C589.009 534.15 588.476 533.033 587.409 532.3C586.343 531.567 584.693 531.2 582.459 531.2C580.426 531.2 578.693 531.683 577.259 532.65C575.826 533.617 574.709 535 573.909 536.8C573.143 538.567 572.759 540.75 572.759 543.35C572.759 546.183 573.176 548.633 574.009 550.7C574.843 552.767 576.009 554.367 577.509 555.5C579.009 556.6 580.793 557.15 582.859 557.15C584.926 557.15 586.559 556.55 587.759 555.35C588.993 554.15 589.876 552.267 590.409 549.7L593.909 549.4C593.909 549.4 593.859 549.667 593.759 550.2C593.659 550.733 593.543 551.433 593.409 552.3C593.276 553.167 593.143 554.117 593.009 555.15C592.876 556.15 592.776 557.133 592.709 558.1L592.359 558.6C592.359 558.6 591.893 558.767 590.959 559.1C590.026 559.433 588.759 559.767 587.159 560.1C585.593 560.433 583.793 560.6 581.759 560.6ZM607.164 560.6C605.497 560.6 604.047 560.45 602.814 560.15C601.581 559.85 600.614 559.55 599.914 559.25C599.214 558.95 598.864 558.8 598.864 558.8L598.564 558.25C598.564 558.25 598.597 558.017 598.664 557.55C598.731 557.05 598.797 556.417 598.864 555.65C598.964 554.85 599.047 553.933 599.114 552.9C599.214 551.833 599.264 550.733 599.264 549.6L602.314 549.35C602.314 551.483 602.481 553.133 602.814 554.3C603.147 555.433 603.747 556.217 604.614 556.65C605.514 557.083 606.781 557.3 608.414 557.3C610.247 557.3 611.731 556.867 612.864 556C614.031 555.133 614.614 553.967 614.614 552.5C614.614 551.467 614.247 550.583 613.514 549.85C612.781 549.117 611.847 548.433 610.714 547.8C609.581 547.167 608.381 546.533 607.114 545.9C605.781 545.233 604.497 544.5 603.264 543.7C602.031 542.9 601.014 541.967 600.214 540.9C599.447 539.833 599.064 538.55 599.064 537.05C599.064 535.183 599.597 533.533 600.664 532.1C601.731 530.667 603.181 529.533 605.014 528.7C606.881 527.867 608.997 527.45 611.364 527.45C612.931 527.45 614.314 527.55 615.514 527.75C616.714 527.95 617.664 528.167 618.364 528.4C619.064 528.633 619.414 528.75 619.414 528.75L619.614 529.2C619.614 529.2 619.531 529.583 619.364 530.35C619.231 531.117 619.081 532.15 618.914 533.45C618.747 534.75 618.597 536.167 618.464 537.7L615.764 537.95L615.364 537.65C615.364 537.65 615.381 537.45 615.414 537.05C615.481 536.617 615.514 536.067 615.514 535.4C615.514 533.767 615.097 532.633 614.264 532C613.464 531.333 612.047 531 610.014 531C608.381 531 607.031 531.417 605.964 532.25C604.897 533.05 604.364 534.067 604.364 535.3C604.364 536.233 604.681 537.067 605.314 537.8C605.947 538.5 606.764 539.15 607.764 539.75C608.797 540.35 609.897 540.933 611.064 541.5C612.497 542.2 613.914 542.967 615.314 543.8C616.714 544.633 617.864 545.6 618.764 546.7C619.697 547.767 620.164 549.1 620.164 550.7C620.164 552.667 619.614 554.4 618.514 555.9C617.447 557.367 615.931 558.517 613.964 559.35C612.031 560.183 609.764 560.6 607.164 560.6ZM634.649 560.5L634.949 557.75C636.416 557.55 637.416 557.15 637.949 556.55C638.483 555.95 638.749 554.933 638.749 553.5L638.799 533.35C638.799 532.283 638.683 531.567 638.449 531.2C638.249 530.833 637.783 530.65 637.049 530.65C636.849 530.65 636.583 530.667 636.249 530.7C635.949 530.7 635.666 530.717 635.399 530.75L635.199 530.45L635.599 527.9C636.266 527.9 637.049 527.917 637.949 527.95C638.883 527.983 639.833 528.017 640.799 528.05C641.799 528.05 642.699 528.05 643.499 528.05C646.066 528.05 648.266 528.033 650.099 528C651.966 527.967 653.583 527.9 654.949 527.8C656.316 527.7 657.533 527.583 658.599 527.45L658.849 527.85C658.683 528.683 658.516 529.617 658.349 530.65C658.183 531.65 658.049 532.667 657.949 533.7C657.849 534.7 657.766 535.633 657.699 536.5L654.349 536.75C654.383 536.45 654.399 536.083 654.399 535.65C654.433 535.217 654.449 534.883 654.449 534.65C654.449 533.883 654.383 533.283 654.249 532.85C654.116 532.383 653.816 532.05 653.349 531.85C652.883 531.617 652.166 531.467 651.199 531.4C650.266 531.3 648.999 531.25 647.399 531.25C646.433 531.25 645.733 531.283 645.299 531.35C644.866 531.417 644.583 531.583 644.449 531.85C644.349 532.117 644.283 532.533 644.249 533.1L643.749 544.4L643.599 554.05C643.599 554.917 643.666 555.567 643.799 556C643.966 556.433 644.299 556.717 644.799 556.85C645.299 556.983 646.099 557.05 647.199 557.05C648.999 557.05 650.449 556.983 651.549 556.85C652.649 556.717 653.483 556.45 654.049 556.05C654.649 555.65 655.083 555.05 655.349 554.25C655.649 553.45 655.883 552.4 656.049 551.1L659.149 550.8L659.399 551.15C659.133 552.283 658.866 553.683 658.599 555.35C658.366 557.017 658.166 558.55 657.999 559.95L657.649 560.35C655.749 560.283 653.816 560.217 651.849 560.15C649.883 560.117 648.066 560.083 646.399 560.05C644.733 560.017 643.383 560 642.349 560C641.216 560 639.916 560.033 638.449 560.1C637.016 560.2 635.749 560.333 634.649 560.5ZM643.099 545.65L643.499 541.95C643.733 541.95 644.166 541.95 644.799 541.95C645.433 541.95 646.116 541.967 646.849 542C647.583 542 648.233 542 648.799 542C649.366 542 650.233 541.95 651.399 541.85C652.566 541.75 653.699 541.633 654.799 541.5L655.049 541.85L654.349 545.4C653.449 545.367 652.333 545.333 650.999 545.3C649.666 545.267 648.533 545.25 647.599 545.25C646.899 545.25 646.133 545.3 645.299 545.4C644.466 545.467 643.733 545.55 643.099 545.65ZM689.338 561.7C687.138 558.2 685.021 554.933 682.988 551.9C680.955 548.833 679.155 546.15 677.588 543.85C676.021 541.55 674.771 539.75 673.838 538.45C672.938 537.117 672.488 536.45 672.488 536.45H672.138L671.938 555.25C671.971 556.017 672.105 556.567 672.338 556.9C672.571 557.2 672.988 557.35 673.588 557.35C673.755 557.35 674.021 557.35 674.388 557.35C674.788 557.317 675.155 557.3 675.488 557.3C675.821 557.3 675.988 557.3 675.988 557.3L676.138 557.55L675.688 560.2C675.688 560.2 675.488 560.183 675.088 560.15C674.688 560.15 674.188 560.133 673.588 560.1C672.988 560.067 672.355 560.033 671.688 560C671.021 560 670.421 560 669.888 560C669.121 560 668.321 560.033 667.488 560.1C666.688 560.167 666.005 560.233 665.438 560.3C664.871 560.367 664.588 560.4 664.588 560.4L664.888 557.65C665.921 557.517 666.671 557.217 667.138 556.75C667.638 556.283 667.905 555.533 667.938 554.5L668.588 533.55C668.588 532.483 668.288 531.75 667.688 531.35C667.121 530.917 666.005 530.617 664.338 530.45L664.138 530.1L664.488 527.8C664.488 527.8 664.771 527.817 665.338 527.85C665.905 527.883 666.571 527.933 667.338 528C668.105 528.033 668.805 528.05 669.438 528.05C670.071 528.05 670.688 528.033 671.288 528C671.888 527.967 672.388 527.933 672.788 527.9C673.188 527.867 673.388 527.85 673.388 527.85C674.921 530.217 676.421 532.533 677.888 534.8C679.355 537.033 680.738 539.133 682.038 541.1C683.338 543.033 684.488 544.733 685.488 546.2C686.521 547.633 687.321 548.767 687.888 549.6C688.455 550.4 688.738 550.8 688.738 550.8H689.088L689.038 532.85C689.038 532.083 688.905 531.533 688.638 531.2C688.371 530.867 687.955 530.7 687.388 530.7C686.988 530.7 686.588 530.717 686.188 530.75C685.821 530.75 685.621 530.75 685.588 530.75L685.438 530.45L685.838 527.85C685.838 527.85 686.021 527.867 686.388 527.9C686.788 527.9 687.271 527.917 687.838 527.95C688.438 527.983 689.038 528.017 689.638 528.05C690.271 528.05 690.838 528.05 691.338 528.05C692.071 528.05 692.855 528.033 693.688 528C694.521 527.933 695.221 527.867 695.788 527.8C696.388 527.733 696.688 527.7 696.688 527.7L696.438 530.45C695.305 530.583 694.471 530.9 693.938 531.4C693.438 531.9 693.171 532.633 693.138 533.6L692.438 561.05L689.338 561.7ZM714.471 560.6C711.437 560.6 708.821 559.967 706.621 558.7C704.421 557.433 702.721 555.633 701.521 553.3C700.321 550.967 699.721 548.2 699.721 545C699.721 541.433 700.437 538.35 701.871 535.75C703.337 533.117 705.387 531.083 708.021 529.65C710.687 528.183 713.804 527.45 717.371 527.45C718.437 527.45 719.537 527.517 720.671 527.65C721.837 527.75 722.904 527.883 723.871 528.05C724.837 528.217 725.621 528.367 726.221 528.5C726.854 528.6 727.171 528.65 727.171 528.65L727.421 529.1C727.421 529.1 727.337 529.5 727.171 530.3C727.004 531.067 726.804 532.117 726.571 533.45C726.371 534.75 726.221 536.2 726.121 537.8L722.671 538.05C722.671 538.05 722.687 537.783 722.721 537.25C722.787 536.683 722.821 536.05 722.821 535.35C722.821 533.85 722.304 532.783 721.271 532.15C720.237 531.517 718.554 531.2 716.221 531.2C713.921 531.2 711.971 531.667 710.371 532.6C708.771 533.5 707.554 534.867 706.721 536.7C705.921 538.5 705.521 540.717 705.521 543.35C705.521 546.217 705.937 548.683 706.771 550.75C707.604 552.817 708.771 554.4 710.271 555.5C711.771 556.6 713.554 557.15 715.621 557.15C716.821 557.15 717.871 557.017 718.771 556.75C719.671 556.483 720.371 556.217 720.871 555.95C721.371 555.65 721.621 555.5 721.621 555.5V550.05C721.621 548.983 721.454 548.283 721.121 547.95C720.821 547.617 720.154 547.45 719.121 547.45C718.754 547.45 718.321 547.45 717.821 547.45C717.354 547.45 716.937 547.45 716.571 547.45C716.204 547.45 716.021 547.45 716.021 547.45L715.871 547.15L716.321 544.2C716.521 544.2 716.954 544.217 717.621 544.25C718.321 544.283 719.137 544.317 720.071 544.35C721.037 544.35 722.004 544.35 722.971 544.35C723.737 544.35 724.471 544.333 725.171 544.3C725.871 544.267 726.437 544.233 726.871 544.2C727.337 544.133 727.571 544.1 727.571 544.1L727.871 545.6C727.371 545.933 726.987 546.383 726.721 546.95C726.487 547.517 726.321 548.317 726.221 549.35C726.121 550.35 726.071 551.733 726.071 553.5C726.071 554.4 726.104 555.25 726.171 556.05C726.237 556.817 726.321 557.433 726.421 557.9L726.071 558.4C726.071 558.4 725.571 558.583 724.571 558.95C723.571 559.317 722.187 559.683 720.421 560.05C718.687 560.417 716.704 560.6 714.471 560.6ZM733.427 560.55L733.727 557.85C735.261 557.55 736.277 557.117 736.777 556.55C737.311 555.95 737.577 554.95 737.577 553.55L737.627 533.35C737.627 532.283 737.494 531.567 737.227 531.2C736.994 530.833 736.511 530.65 735.777 530.65C735.544 530.65 735.227 530.667 734.827 530.7C734.461 530.7 734.127 530.717 733.827 530.75L733.677 530.45L734.027 527.95C734.994 527.95 736.077 527.967 737.277 528C738.511 528.033 739.561 528.05 740.427 528.05C741.094 528.05 742.011 528.017 743.177 527.95C744.344 527.85 745.544 527.75 746.777 527.65L746.527 530.35C745.194 530.517 744.294 530.783 743.827 531.15C743.394 531.517 743.144 532.183 743.077 533.15C742.977 534.883 742.877 536.717 742.777 538.65C742.711 540.583 742.644 542.517 742.577 544.45C742.544 546.35 742.511 548.133 742.477 549.8C742.444 551.433 742.427 552.817 742.427 553.95C742.427 555.283 742.561 556.183 742.827 556.65C743.127 557.117 743.677 557.35 744.477 557.35C744.911 557.35 745.344 557.333 745.777 557.3C746.244 557.267 746.627 557.233 746.927 557.2L747.077 557.45L746.627 560.15C745.961 560.117 745.194 560.083 744.327 560.05C743.461 560.05 742.611 560.033 741.777 560C740.944 560 740.261 560 739.727 560C738.961 560 737.994 560.05 736.827 560.15C735.661 560.25 734.527 560.383 733.427 560.55ZM776.691 561.7C774.491 558.2 772.375 554.933 770.341 551.9C768.308 548.833 766.508 546.15 764.941 543.85C763.375 541.55 762.125 539.75 761.191 538.45C760.291 537.117 759.841 536.45 759.841 536.45H759.491L759.291 555.25C759.325 556.017 759.458 556.567 759.691 556.9C759.925 557.2 760.341 557.35 760.941 557.35C761.108 557.35 761.375 557.35 761.741 557.35C762.141 557.317 762.508 557.3 762.841 557.3C763.175 557.3 763.341 557.3 763.341 557.3L763.491 557.55L763.041 560.2C763.041 560.2 762.841 560.183 762.441 560.15C762.041 560.15 761.541 560.133 760.941 560.1C760.341 560.067 759.708 560.033 759.041 560C758.375 560 757.775 560 757.241 560C756.475 560 755.675 560.033 754.841 560.1C754.041 560.167 753.358 560.233 752.791 560.3C752.225 560.367 751.941 560.4 751.941 560.4L752.241 557.65C753.275 557.517 754.025 557.217 754.491 556.75C754.991 556.283 755.258 555.533 755.291 554.5L755.941 533.55C755.941 532.483 755.641 531.75 755.041 531.35C754.475 530.917 753.358 530.617 751.691 530.45L751.491 530.1L751.841 527.8C751.841 527.8 752.125 527.817 752.691 527.85C753.258 527.883 753.925 527.933 754.691 528C755.458 528.033 756.158 528.05 756.791 528.05C757.425 528.05 758.041 528.033 758.641 528C759.241 527.967 759.741 527.933 760.141 527.9C760.541 527.867 760.741 527.85 760.741 527.85C762.275 530.217 763.775 532.533 765.241 534.8C766.708 537.033 768.091 539.133 769.391 541.1C770.691 543.033 771.841 544.733 772.841 546.2C773.875 547.633 774.675 548.767 775.241 549.6C775.808 550.4 776.091 550.8 776.091 550.8H776.441L776.391 532.85C776.391 532.083 776.258 531.533 775.991 531.2C775.725 530.867 775.308 530.7 774.741 530.7C774.341 530.7 773.941 530.717 773.541 530.75C773.175 530.75 772.975 530.75 772.941 530.75L772.791 530.45L773.191 527.85C773.191 527.85 773.375 527.867 773.741 527.9C774.141 527.9 774.625 527.917 775.191 527.95C775.791 527.983 776.391 528.017 776.991 528.05C777.625 528.05 778.191 528.05 778.691 528.05C779.425 528.05 780.208 528.033 781.041 528C781.875 527.933 782.575 527.867 783.141 527.8C783.741 527.733 784.041 527.7 784.041 527.7L783.791 530.45C782.658 530.583 781.825 530.9 781.291 531.4C780.791 531.9 780.525 532.633 780.491 533.6L779.791 561.05L776.691 561.7ZM787.774 560.5L788.074 557.75C789.541 557.55 790.541 557.15 791.074 556.55C791.608 555.95 791.874 554.933 791.874 553.5L791.924 533.35C791.924 532.283 791.808 531.567 791.574 531.2C791.374 530.833 790.908 530.65 790.174 530.65C789.974 530.65 789.708 530.667 789.374 530.7C789.074 530.7 788.791 530.717 788.524 530.75L788.324 530.45L788.724 527.9C789.391 527.9 790.174 527.917 791.074 527.95C792.008 527.983 792.958 528.017 793.924 528.05C794.924 528.05 795.824 528.05 796.624 528.05C799.191 528.05 801.391 528.033 803.224 528C805.091 527.967 806.708 527.9 808.074 527.8C809.441 527.7 810.658 527.583 811.724 527.45L811.974 527.85C811.808 528.683 811.641 529.617 811.474 530.65C811.308 531.65 811.174 532.667 811.074 533.7C810.974 534.7 810.891 535.633 810.824 536.5L807.474 536.75C807.508 536.45 807.524 536.083 807.524 535.65C807.558 535.217 807.574 534.883 807.574 534.65C807.574 533.883 807.508 533.283 807.374 532.85C807.241 532.383 806.941 532.05 806.474 531.85C806.008 531.617 805.291 531.467 804.324 531.4C803.391 531.3 802.124 531.25 800.524 531.25C799.558 531.25 798.858 531.283 798.424 531.35C797.991 531.417 797.708 531.583 797.574 531.85C797.474 532.117 797.408 532.533 797.374 533.1L796.874 544.4L796.724 554.05C796.724 554.917 796.791 555.567 796.924 556C797.091 556.433 797.424 556.717 797.924 556.85C798.424 556.983 799.224 557.05 800.324 557.05C802.124 557.05 803.574 556.983 804.674 556.85C805.774 556.717 806.608 556.45 807.174 556.05C807.774 555.65 808.208 555.05 808.474 554.25C808.774 553.45 809.008 552.4 809.174 551.1L812.274 550.8L812.524 551.15C812.258 552.283 811.991 553.683 811.724 555.35C811.491 557.017 811.291 558.55 811.124 559.95L810.774 560.35C808.874 560.283 806.941 560.217 804.974 560.15C803.008 560.117 801.191 560.083 799.524 560.05C797.858 560.017 796.508 560 795.474 560C794.341 560 793.041 560.033 791.574 560.1C790.141 560.2 788.874 560.333 787.774 560.5ZM796.224 545.65L796.624 541.95C796.858 541.95 797.291 541.95 797.924 541.95C798.558 541.95 799.241 541.967 799.974 542C800.708 542 801.358 542 801.924 542C802.491 542 803.358 541.95 804.524 541.85C805.691 541.75 806.824 541.633 807.924 541.5L808.174 541.85L807.474 545.4C806.574 545.367 805.458 545.333 804.124 545.3C802.791 545.267 801.658 545.25 800.724 545.25C800.024 545.25 799.258 545.3 798.424 545.4C797.591 545.467 796.858 545.55 796.224 545.65ZM817.413 560.5L817.713 557.75C819.18 557.55 820.18 557.15 820.713 556.55C821.246 555.95 821.513 554.933 821.513 553.5L821.563 533.35C821.563 532.283 821.446 531.567 821.213 531.2C821.013 530.833 820.546 530.65 819.813 530.65C819.613 530.65 819.346 530.667 819.013 530.7C818.713 530.7 818.43 530.717 818.163 530.75L817.963 530.45L818.363 527.9C819.03 527.9 819.813 527.917 820.713 527.95C821.646 527.983 822.596 528.017 823.563 528.05C824.563 528.05 825.463 528.05 826.263 528.05C828.83 528.05 831.03 528.033 832.863 528C834.73 527.967 836.346 527.9 837.713 527.8C839.08 527.7 840.296 527.583 841.363 527.45L841.613 527.85C841.446 528.683 841.28 529.617 841.113 530.65C840.946 531.65 840.813 532.667 840.713 533.7C840.613 534.7 840.53 535.633 840.463 536.5L837.113 536.75C837.146 536.45 837.163 536.083 837.163 535.65C837.196 535.217 837.213 534.883 837.213 534.65C837.213 533.883 837.146 533.283 837.013 532.85C836.88 532.383 836.58 532.05 836.113 531.85C835.646 531.617 834.93 531.467 833.963 531.4C833.03 531.3 831.763 531.25 830.163 531.25C829.196 531.25 828.496 531.283 828.063 531.35C827.63 531.417 827.346 531.583 827.213 531.85C827.113 532.117 827.046 532.533 827.013 533.1L826.513 544.4L826.363 554.05C826.363 554.917 826.43 555.567 826.563 556C826.73 556.433 827.063 556.717 827.563 556.85C828.063 556.983 828.863 557.05 829.963 557.05C831.763 557.05 833.213 556.983 834.313 556.85C835.413 556.717 836.246 556.45 836.813 556.05C837.413 555.65 837.846 555.05 838.113 554.25C838.413 553.45 838.646 552.4 838.813 551.1L841.913 550.8L842.163 551.15C841.896 552.283 841.63 553.683 841.363 555.35C841.13 557.017 840.93 558.55 840.763 559.95L840.413 560.35C838.513 560.283 836.58 560.217 834.613 560.15C832.646 560.117 830.83 560.083 829.163 560.05C827.496 560.017 826.146 560 825.113 560C823.98 560 822.68 560.033 821.213 560.1C819.78 560.2 818.513 560.333 817.413 560.5ZM825.863 545.65L826.263 541.95C826.496 541.95 826.93 541.95 827.563 541.95C828.196 541.95 828.88 541.967 829.613 542C830.346 542 830.996 542 831.563 542C832.13 542 832.996 541.95 834.163 541.85C835.33 541.75 836.463 541.633 837.563 541.5L837.813 541.85L837.113 545.4C836.213 545.367 835.096 545.333 833.763 545.3C832.43 545.267 831.296 545.25 830.363 545.25C829.663 545.25 828.896 545.3 828.063 545.4C827.23 545.467 826.496 545.55 825.863 545.65ZM870.252 560.8C869.318 560.8 868.385 560.383 867.452 559.55C866.518 558.717 865.652 557.567 864.852 556.1L860.002 546.8H856.102L856.002 553.45C856.002 554.617 856.068 555.483 856.202 556.05C856.368 556.617 856.702 556.983 857.202 557.15C857.735 557.317 858.535 557.417 859.602 557.45L859.702 557.65L859.252 560.2C859.252 560.2 859.052 560.183 858.652 560.15C858.252 560.15 857.752 560.133 857.152 560.1C856.552 560.1 855.918 560.083 855.252 560.05C854.585 560.05 853.952 560.05 853.352 560.05C852.452 560.017 851.502 560.017 850.502 560.05C849.535 560.083 848.702 560.117 848.002 560.15C847.335 560.217 847.002 560.25 847.002 560.25L847.452 557.5C848.952 557.333 849.935 556.983 850.402 556.45C850.902 555.917 851.152 554.933 851.152 553.5L851.202 533.25C851.202 532.25 851.085 531.567 850.852 531.2C850.618 530.833 850.152 530.65 849.452 530.65C849.152 530.65 848.785 530.667 848.352 530.7C847.952 530.733 847.752 530.75 847.752 530.75L847.552 530.5L847.952 527.9C847.952 527.9 848.152 527.917 848.552 527.95C848.985 527.95 849.518 527.967 850.152 528C850.785 528 851.435 528.017 852.102 528.05C852.768 528.05 853.335 528.05 853.802 528.05C854.268 528.05 854.868 528.05 855.602 528.05C856.368 528.017 857.135 527.983 857.902 527.95C858.668 527.917 859.302 527.9 859.802 527.9C860.335 527.867 860.602 527.85 860.602 527.85C864.002 527.85 866.652 528.567 868.552 530C870.452 531.4 871.402 533.4 871.402 536C871.402 537.967 870.785 539.783 869.552 541.45C868.352 543.117 866.618 544.483 864.352 545.55L869.352 553.55C870.318 555.083 871.235 556.183 872.102 556.85C873.002 557.517 874.068 557.85 875.302 557.85L875.552 558.15L875.202 560.25L870.252 560.8ZM861.102 543.8C861.202 543.733 861.502 543.583 862.002 543.35C862.535 543.117 863.102 542.75 863.702 542.25C864.335 541.75 864.868 541.067 865.302 540.2C865.768 539.333 866.002 538.233 866.002 536.9C866.002 534.867 865.302 533.35 863.902 532.35C862.535 531.317 860.435 530.8 857.602 530.8C857.268 530.8 857.035 530.883 856.902 531.05C856.802 531.183 856.735 531.483 856.702 531.95C856.568 534.317 856.452 536.383 856.352 538.15C856.285 539.917 856.235 541.633 856.202 543.3L861.102 543.8ZM878.252 560.55L878.552 557.85C880.085 557.55 881.102 557.117 881.602 556.55C882.135 555.95 882.402 554.95 882.402 553.55L882.452 533.35C882.452 532.283 882.318 531.567 882.052 531.2C881.818 530.833 881.335 530.65 880.602 530.65C880.368 530.65 880.052 530.667 879.652 530.7C879.285 530.7 878.952 530.717 878.652 530.75L878.502 530.45L878.852 527.95C879.818 527.95 880.902 527.967 882.102 528C883.335 528.033 884.385 528.05 885.252 528.05C885.918 528.05 886.835 528.017 888.002 527.95C889.168 527.85 890.368 527.75 891.602 527.65L891.352 530.35C890.018 530.517 889.118 530.783 888.652 531.15C888.218 531.517 887.968 532.183 887.902 533.15C887.802 534.883 887.702 536.717 887.602 538.65C887.535 540.583 887.468 542.517 887.402 544.45C887.368 546.35 887.335 548.133 887.302 549.8C887.268 551.433 887.252 552.817 887.252 553.95C887.252 555.283 887.385 556.183 887.652 556.65C887.952 557.117 888.502 557.35 889.302 557.35C889.735 557.35 890.168 557.333 890.602 557.3C891.068 557.267 891.452 557.233 891.752 557.2L891.902 557.45L891.452 560.15C890.785 560.117 890.018 560.083 889.152 560.05C888.285 560.05 887.435 560.033 886.602 560C885.768 560 885.085 560 884.552 560C883.785 560 882.818 560.05 881.652 560.15C880.485 560.25 879.352 560.383 878.252 560.55ZM921.516 561.7C919.316 558.2 917.199 554.933 915.166 551.9C913.132 548.833 911.332 546.15 909.766 543.85C908.199 541.55 906.949 539.75 906.016 538.45C905.116 537.117 904.666 536.45 904.666 536.45H904.316L904.116 555.25C904.149 556.017 904.282 556.567 904.516 556.9C904.749 557.2 905.166 557.35 905.766 557.35C905.932 557.35 906.199 557.35 906.566 557.35C906.966 557.317 907.332 557.3 907.666 557.3C907.999 557.3 908.166 557.3 908.166 557.3L908.316 557.55L907.866 560.2C907.866 560.2 907.666 560.183 907.266 560.15C906.866 560.15 906.366 560.133 905.766 560.1C905.166 560.067 904.532 560.033 903.866 560C903.199 560 902.599 560 902.066 560C901.299 560 900.499 560.033 899.666 560.1C898.866 560.167 898.182 560.233 897.616 560.3C897.049 560.367 896.766 560.4 896.766 560.4L897.066 557.65C898.099 557.517 898.849 557.217 899.316 556.75C899.816 556.283 900.082 555.533 900.116 554.5L900.766 533.55C900.766 532.483 900.466 531.75 899.866 531.35C899.299 530.917 898.182 530.617 896.516 530.45L896.316 530.1L896.666 527.8C896.666 527.8 896.949 527.817 897.516 527.85C898.082 527.883 898.749 527.933 899.516 528C900.282 528.033 900.982 528.05 901.616 528.05C902.249 528.05 902.866 528.033 903.466 528C904.066 527.967 904.566 527.933 904.966 527.9C905.366 527.867 905.566 527.85 905.566 527.85C907.099 530.217 908.599 532.533 910.066 534.8C911.532 537.033 912.916 539.133 914.216 541.1C915.516 543.033 916.666 544.733 917.666 546.2C918.699 547.633 919.499 548.767 920.066 549.6C920.632 550.4 920.916 550.8 920.916 550.8H921.266L921.216 532.85C921.216 532.083 921.082 531.533 920.816 531.2C920.549 530.867 920.132 530.7 919.566 530.7C919.166 530.7 918.766 530.717 918.366 530.75C917.999 530.75 917.799 530.75 917.766 530.75L917.616 530.45L918.016 527.85C918.016 527.85 918.199 527.867 918.566 527.9C918.966 527.9 919.449 527.917 920.016 527.95C920.616 527.983 921.216 528.017 921.816 528.05C922.449 528.05 923.016 528.05 923.516 528.05C924.249 528.05 925.032 528.033 925.866 528C926.699 527.933 927.399 527.867 927.966 527.8C928.566 527.733 928.866 527.7 928.866 527.7L928.616 530.45C927.482 530.583 926.649 530.9 926.116 531.4C925.616 531.9 925.349 532.633 925.316 533.6L924.616 561.05L921.516 561.7ZM946.648 560.6C943.615 560.6 940.998 559.967 938.798 558.7C936.598 557.433 934.898 555.633 933.698 553.3C932.498 550.967 931.898 548.2 931.898 545C931.898 541.433 932.615 538.35 934.048 535.75C935.515 533.117 937.565 531.083 940.198 529.65C942.865 528.183 945.982 527.45 949.548 527.45C950.615 527.45 951.715 527.517 952.848 527.65C954.015 527.75 955.082 527.883 956.048 528.05C957.015 528.217 957.798 528.367 958.398 528.5C959.032 528.6 959.348 528.65 959.348 528.65L959.598 529.1C959.598 529.1 959.515 529.5 959.348 530.3C959.182 531.067 958.982 532.117 958.748 533.45C958.548 534.75 958.398 536.2 958.298 537.8L954.848 538.05C954.848 538.05 954.865 537.783 954.898 537.25C954.965 536.683 954.998 536.05 954.998 535.35C954.998 533.85 954.482 532.783 953.448 532.15C952.415 531.517 950.732 531.2 948.398 531.2C946.098 531.2 944.148 531.667 942.548 532.6C940.948 533.5 939.732 534.867 938.898 536.7C938.098 538.5 937.698 540.717 937.698 543.35C937.698 546.217 938.115 548.683 938.948 550.75C939.782 552.817 940.948 554.4 942.448 555.5C943.948 556.6 945.732 557.15 947.798 557.15C948.998 557.15 950.048 557.017 950.948 556.75C951.848 556.483 952.548 556.217 953.048 555.95C953.548 555.65 953.798 555.5 953.798 555.5V550.05C953.798 548.983 953.632 548.283 953.298 547.95C952.998 547.617 952.332 547.45 951.298 547.45C950.932 547.45 950.498 547.45 949.998 547.45C949.532 547.45 949.115 547.45 948.748 547.45C948.382 547.45 948.198 547.45 948.198 547.45L948.048 547.15L948.498 544.2C948.698 544.2 949.132 544.217 949.798 544.25C950.498 544.283 951.315 544.317 952.248 544.35C953.215 544.35 954.182 544.35 955.148 544.35C955.915 544.35 956.648 544.333 957.348 544.3C958.048 544.267 958.615 544.233 959.048 544.2C959.515 544.133 959.748 544.1 959.748 544.1L960.048 545.6C959.548 545.933 959.165 546.383 958.898 546.95C958.665 547.517 958.498 548.317 958.398 549.35C958.298 550.35 958.248 551.733 958.248 553.5C958.248 554.4 958.282 555.25 958.348 556.05C958.415 556.817 958.498 557.433 958.598 557.9L958.248 558.4C958.248 558.4 957.748 558.583 956.748 558.95C955.748 559.317 954.365 559.683 952.598 560.05C950.865 560.417 948.882 560.6 946.648 560.6Z" fill="#0996CE"/>
</g>
<defs>
<clipPath id="clip0_28_2">
<rect width="1280" height="832" fill="white"/>
</clipPath>
</defs>
</svg>
