<svg width="100" height="100" viewBox="0 0 100 100" fill="none" xmlns="http://www.w3.org/2000/svg">
<path fill-rule="evenodd" clip-rule="evenodd" d="M20.8333 8.33334C19.7283 8.33334 18.6684 8.77232 17.887 9.55372C17.1056 10.3351 16.6667 11.3949 16.6667 12.5V79.1667C16.6667 82.4819 17.9836 85.6613 20.3278 88.0055C22.672 90.3497 25.8515 91.6667 29.1667 91.6667H70.8333C74.1485 91.6667 77.328 90.3497 79.6722 88.0055C82.0164 85.6613 83.3333 82.4819 83.3333 79.1667V33.3333C83.3331 32.2284 82.8939 31.1687 82.1125 30.3875L61.2792 9.55417C60.4979 8.77271 59.4383 8.33357 58.3333 8.33334H20.8333ZM58.3333 18.3917L73.275 33.3333H58.3333V18.3917ZM50 50C51.1051 50 52.1649 50.439 52.9463 51.2204C53.7277 52.0018 54.1667 53.0616 54.1667 54.1667V58.3333H58.3333C59.4384 58.3333 60.4982 58.7723 61.2796 59.5537C62.061 60.3351 62.5 61.3949 62.5 62.5C62.5 63.6051 62.061 64.6649 61.2796 65.4463C60.4982 66.2277 59.4384 66.6667 58.3333 66.6667H54.1667V70.8333C54.1667 71.9384 53.7277 72.9982 52.9463 73.7796C52.1649 74.561 51.1051 75 50 75C48.8949 75 47.8351 74.561 47.0537 73.7796C46.2723 72.9982 45.8333 71.9384 45.8333 70.8333V66.6667H41.6667C40.5616 66.6667 39.5018 66.2277 38.7204 65.4463C37.939 64.6649 37.5 63.6051 37.5 62.5C37.5 61.3949 37.939 60.3351 38.7204 59.5537C39.5018 58.7723 40.5616 58.3333 41.6667 58.3333H45.8333V54.1667C45.8333 53.0616 46.2723 52.0018 47.0537 51.2204C47.8351 50.439 48.8949 50 50 50Z" fill="black"/>
</svg>
