<svg width="100" height="100" viewBox="0 0 100 100" fill="none" xmlns="http://www.w3.org/2000/svg">
<path d="M61.1906 47.9688L26.6 41.875V86.9031C26.6004 87.3923 26.6972 87.8766 26.8847 88.3284C27.0723 88.7802 27.3471 89.1906 27.6932 89.5362C28.0394 89.8818 28.4503 90.1558 28.9024 90.3426C29.3545 90.5295 29.839 90.6254 30.3281 90.625H90.0156C90.5053 90.6262 90.9905 90.5309 91.4433 90.3444C91.8961 90.158 92.3077 89.8841 92.6546 89.5384C93.0014 89.1927 93.2767 88.782 93.4647 88.3298C93.6526 87.8776 93.7496 87.3928 93.75 86.9031V70.3125L61.1906 47.9688Z" fill="#185C37"/>
<path d="M61.1906 9.375H30.3281C29.839 9.37459 29.3545 9.47053 28.9024 9.65735C28.4503 9.84417 28.0394 10.1182 27.6932 10.4638C27.3471 10.8094 27.0723 11.2198 26.8847 11.6716C26.6972 12.1234 26.6004 12.6077 26.6 13.0969V29.6875L61.1906 50L79.5063 56.0938L93.75 50V29.6875L61.1906 9.375Z" fill="#21A366"/>
<path d="M26.6 29.6875H61.1906V50H26.6V29.6875Z" fill="#107C41"/>
<path opacity="0.1" d="M51.3563 25.625H26.6V76.4062H51.3563C52.3427 76.4013 53.2875 76.0079 53.9859 75.3113C54.6843 74.6146 55.0801 73.6708 55.0875 72.6844V29.3469C55.0801 28.3604 54.6843 27.4166 53.9859 26.72C53.2875 26.0233 52.3427 25.6299 51.3563 25.625Z" fill="black"/>
<path opacity="0.2" d="M49.3219 27.6562H26.6V78.4375H49.3219C50.3083 78.4326 51.2531 78.0392 51.9516 77.3425C52.65 76.6459 53.0457 75.7021 53.0531 74.7156V31.3781C53.0457 30.3917 52.65 29.4479 51.9516 28.7512C51.2531 28.0546 50.3083 27.6612 49.3219 27.6562Z" fill="black"/>
<path opacity="0.2" d="M49.3219 27.6562H26.6V74.375H49.3219C50.3083 74.3701 51.2531 73.9767 51.9516 73.28C52.65 72.5834 53.0457 71.6396 53.0531 70.6531V31.3781C53.0457 30.3917 52.65 29.4479 51.9516 28.7512C51.2531 28.0546 50.3083 27.6612 49.3219 27.6562Z" fill="black"/>
<path opacity="0.2" d="M47.2875 27.6562H26.6V74.375H47.2875C48.274 74.3701 49.2188 73.9767 49.9172 73.28C50.6156 72.5834 51.0114 71.6396 51.0188 70.6531V31.3781C51.0114 30.3917 50.6156 29.4479 49.9172 28.7512C49.2188 28.0546 48.274 27.6612 47.2875 27.6562Z" fill="black"/>
<path d="M9.98125 27.6563H47.2875C48.2757 27.6554 49.2238 28.047 49.9235 28.7449C50.6231 29.4428 51.0171 30.3899 51.0188 31.3781V68.6219C51.0171 69.6101 50.6231 70.5572 49.9235 71.2551C49.2238 71.953 48.2757 72.3446 47.2875 72.3438H9.98125C9.49181 72.3446 9.00701 72.2489 8.55456 72.0623C8.1021 71.8757 7.69086 71.6017 7.34434 71.256C6.99782 70.9104 6.72282 70.4998 6.53504 70.0479C6.34727 69.5959 6.25041 69.1113 6.25 68.6219V31.3781C6.25041 30.8887 6.34727 30.4041 6.53504 29.9521C6.72282 29.5002 6.99782 29.0896 7.34434 28.744C7.69086 28.3983 8.1021 28.1243 8.55456 27.9377C9.00701 27.7511 9.49181 27.6554 9.98125 27.6563Z" fill="url(#paint0_linear_18_5)"/>
<path d="M17.8125 62.1031L25.6594 49.9656L18.4719 37.8969H24.2437L28.1656 45.625C28.5281 46.3563 28.7906 46.9 28.9094 47.2625H28.9625C29.2187 46.675 29.4906 46.1094 29.775 45.5563L33.9687 37.9094H39.2812L31.9094 49.9094L39.4687 62.1125H33.8156L29.2844 53.6406C29.074 53.2764 28.8952 52.8948 28.75 52.5H28.675C28.5429 52.8846 28.3667 53.2527 28.15 53.5969L23.4844 62.1031H17.8125Z" fill="white"/>
<path d="M90.0188 9.37501H61.1906V29.6875H93.75V13.0969C93.7496 12.6074 93.6527 12.1229 93.465 11.6709C93.2772 11.2189 93.0022 10.8084 92.6557 10.4627C92.3091 10.1171 91.8979 9.8431 91.4455 9.65646C90.993 9.46982 90.5082 9.37418 90.0188 9.37501Z" fill="#33C481"/>
<path d="M61.1906 50H93.75V70.3125H61.1906V50Z" fill="#107C41"/>
<defs>
<linearGradient id="paint0_linear_18_5" x1="14.0437" y1="24.7313" x2="43.225" y2="75.2688" gradientUnits="userSpaceOnUse">
<stop stop-color="#18884F"/>
<stop offset="0.5" stop-color="#117E43"/>
<stop offset="1" stop-color="#0B6631"/>
</linearGradient>
</defs>
</svg>
